<svg width="50" height="50" viewBox="0 0 50 50" fill="none" xmlns="http://www.w3.org/2000/svg">
<rect width="50" height="50" rx="5" fill="url(#paint0_linear)"/>
<path d="M28.582 29.2188C27.8633 30.7734 26.7773 31.5508 25.3242 31.5508C24.7148 31.5508 24.1914 31.4219 23.7539 31.1641C23.3086 30.9453 22.9492 30.6602 22.6758 30.3086C22.3398 29.9414 22.1172 29.4609 22.0078 28.8672C21.8828 28.2734 21.8203 27.1367 21.8203 25.457C21.8203 23.7773 21.8828 22.6328 22.0078 22.0234C22.1172 21.4453 22.3398 20.9727 22.6758 20.6055C22.9492 20.2539 23.3086 19.9609 23.7539 19.7266C24.1914 19.5 24.7148 19.3789 25.3242 19.3633C26.1523 19.3789 26.8555 19.6172 27.4336 20.0781C27.9883 20.5625 28.3711 21.1484 28.582 21.8359H31.3242C31.0508 20.4062 30.3945 19.207 29.3555 18.2383C28.3164 17.2773 26.9727 16.7891 25.3242 16.7734C23.9805 16.7891 22.8594 17.1094 21.9609 17.7344C21.0469 18.3516 20.3828 19.0547 19.9688 19.8438C19.7109 20.2578 19.5195 20.8008 19.3945 21.4727C19.2773 22.1445 19.2188 23.4727 19.2188 25.457C19.2188 27.4102 19.2773 28.7305 19.3945 29.418C19.457 29.7852 19.5352 30.0898 19.6289 30.332C19.7305 30.5664 19.8438 30.8125 19.9688 31.0703C20.3828 31.8594 21.0469 32.5547 21.9609 33.1562C22.8594 33.7812 23.9805 34.1094 25.3242 34.1406C26.8086 34.1406 28.0938 33.7188 29.1797 32.875C30.2344 32.0234 30.9492 30.8047 31.3242 29.2188H28.582Z" fill="white"/>
<defs>
<linearGradient id="paint0_linear" x1="0" y1="0" x2="50" y2="50" gradientUnits="userSpaceOnUse">
<stop stop-color="#595959"/>
<stop offset="1" stop-color="#848484" stop-opacity="0"/>
</linearGradient>
</defs>
</svg>
