<svg width="560" height="740" viewBox="0 0 560 740" fill="none" xmlns="http://www.w3.org/2000/svg">
<g clip-path="url(#clip0)">
<path d="M89.76 70.792C88.064 72.936 84.672 75.56 81.664 77.16C82.56 77.768 83.968 78.984 84.8 79.816C87.872 77.992 91.392 75.112 93.792 72.36L89.76 70.792ZM98.208 72.584C101.056 74.76 104.864 77.864 106.624 79.816L110.4 77.576C108.384 75.624 104.416 72.648 101.696 70.696L98.208 72.584ZM92.32 59.72H99.68V65.864H92.32V59.72ZM103.648 65.864V59.72H109.632V56.04H103.648V50.12H99.68V56.04H92.32V50.12H88.352V56.04H82.592V59.72H88.352V65.864H81.472V69.576H110.624V65.864H103.648ZM127.462 73.928C128.785 73.928 129.787 73.576 130.47 72.872C131.174 72.168 131.526 71.3147 131.526 70.312C131.526 69.096 131.163 68.2 130.438 67.624C129.713 67.048 128.571 66.76 127.014 66.76H124.71V64.552L128.582 59.272L130.406 57.832L127.878 58.12H122.502V54.6H134.726V56.872L130.214 62.92L128.806 63.784V63.944L130.15 63.752C130.897 63.816 131.601 63.9867 132.262 64.264C132.945 64.5413 133.531 64.9467 134.022 65.48C134.534 65.992 134.939 66.632 135.238 67.4C135.537 68.168 135.686 69.0533 135.686 70.056C135.686 71.3147 135.473 72.4027 135.046 73.32C134.641 74.2373 134.065 75.0053 133.318 75.624C132.593 76.2427 131.739 76.7013 130.758 77C129.777 77.2987 128.721 77.448 127.59 77.448C126.651 77.448 125.681 77.3627 124.678 77.192C123.675 77.0213 122.865 76.776 122.246 76.456L123.366 73C123.921 73.2773 124.529 73.5013 125.19 73.672C125.873 73.8427 126.63 73.928 127.462 73.928ZM154.796 70.056C154.796 71.1013 154.615 72.072 154.252 72.968C153.911 73.864 153.42 74.6427 152.78 75.304C152.14 75.9653 151.362 76.488 150.444 76.872C149.548 77.256 148.556 77.448 147.468 77.448C146.359 77.448 145.335 77.2773 144.396 76.936C143.479 76.5733 142.679 76.04 141.996 75.336C141.314 74.632 140.78 73.7467 140.396 72.68C140.012 71.6133 139.82 70.376 139.82 68.968C139.82 66.856 140.119 64.9467 140.716 63.24C141.335 61.5333 142.156 60.0507 143.18 58.792C144.226 57.512 145.431 56.488 146.796 55.72C148.183 54.9307 149.644 54.408 151.18 54.152L152.108 57.448C151.042 57.6187 150.06 57.9493 149.164 58.44C148.268 58.9307 147.468 59.5173 146.764 60.2C146.082 60.8827 145.495 61.6507 145.004 62.504C144.535 63.336 144.204 64.2 144.012 65.096C144.439 64.5627 144.994 64.1147 145.676 63.752C146.359 63.368 147.212 63.176 148.236 63.176C149.196 63.176 150.082 63.3253 150.892 63.624C151.703 63.9227 152.396 64.3707 152.972 64.968C153.548 65.544 153.996 66.2587 154.316 67.112C154.636 67.9653 154.796 68.9467 154.796 70.056ZM150.764 70.28C150.764 67.8907 149.591 66.696 147.244 66.696C146.391 66.696 145.666 66.888 145.068 67.272C144.492 67.656 144.087 68.104 143.852 68.616C143.81 68.8507 143.788 69.0533 143.788 69.224C143.788 69.3947 143.788 69.5653 143.788 69.736C143.788 70.248 143.863 70.76 144.012 71.272C144.162 71.7627 144.375 72.2107 144.652 72.616C144.951 73 145.324 73.32 145.772 73.576C146.22 73.8107 146.754 73.928 147.372 73.928C148.375 73.928 149.186 73.5867 149.804 72.904C150.444 72.2213 150.764 71.3467 150.764 70.28ZM175.679 55.272V58.952H193.503V55.272H183.647L187.007 54.312C186.655 53 186.015 50.984 185.375 49.448L181.759 50.344C182.303 51.848 182.943 53.896 183.167 55.272H175.679ZM183.199 72.904C182.878 69.672 181.983 64.168 181.023 59.976L177.567 60.744C178.431 65.032 179.199 70.632 179.455 73.96L183.199 72.904ZM172.383 50.024C170.751 54.568 167.967 59.112 165.087 61.992C165.727 62.92 166.783 65 167.135 65.96C167.807 65.224 168.479 64.424 169.151 63.592V79.72H172.991V57.608C174.143 55.528 175.135 53.32 175.967 51.144L172.383 50.024ZM189.151 74.856C190.271 70.856 191.455 65.288 192.255 60.488L188.287 59.88C187.839 64.488 186.751 70.696 185.663 74.856H174.527V78.536H194.591V74.856H189.151ZM216.057 53.864C215.609 53.48 215.033 53.032 214.392 52.584C215.001 52.04 215.545 51.432 215.993 50.824L213.497 50.088C213.177 50.536 212.76 50.952 212.345 51.368C211.673 50.984 211.001 50.632 210.393 50.344L208.697 51.816C209.273 52.104 209.817 52.424 210.425 52.776C209.657 53.256 208.825 53.704 207.993 54.024C208.601 54.44 209.561 55.272 209.977 55.72C210.841 55.304 211.705 54.76 212.569 54.12C213.208 54.6 213.817 55.048 214.233 55.464L216.057 53.864ZM204.249 60.232H208.057V59.88C208.537 60.328 209.145 60.936 209.497 61.352H204.312L204.249 60.232ZM202.009 64.104H222.553V67.912H226.329V61.352H223.961C224.217 58.376 224.473 54.312 224.633 50.952H216.633V53.352H220.921L220.857 54.408H216.793V56.776H220.697L220.633 57.864H216.633V60.232H220.409L220.281 61.352H209.913C210.777 60.872 211.641 60.328 212.505 59.688C213.241 60.264 213.881 60.776 214.361 61.256L216.281 59.592C215.769 59.112 215.097 58.632 214.329 58.12C214.969 57.512 215.545 56.872 216.025 56.2L213.529 55.464C213.177 55.912 212.729 56.392 212.281 56.808C211.577 56.424 210.905 56.04 210.265 55.72L208.505 57.224C209.081 57.544 209.689 57.896 210.297 58.28C209.625 58.728 208.825 59.112 208.057 59.496V57.864H204.121L204.057 56.776H207.993V54.408H203.929L203.865 53.48C205.369 53.16 207.001 52.744 208.249 52.264L206.681 50.056C204.985 50.664 202.137 51.528 200.217 51.848L200.793 61.352H198.393V67.912H202.009V64.104ZM226.745 70.92H214.777C216.953 69.832 219.129 68.52 220.889 67.24L218.745 65.288L217.945 65.48H204.025V68.136H214.297C213.145 68.84 211.929 69.544 210.777 69.992V70.92H197.817V73.928H210.777V76.104C210.777 76.488 210.617 76.584 210.105 76.584C209.625 76.616 207.705 76.616 206.201 76.552C206.649 77.448 207.193 78.728 207.353 79.752C209.753 79.752 211.513 79.72 212.825 79.272C214.137 78.76 214.521 77.928 214.521 76.232V73.928H226.745V70.92ZM246.611 75.144V68.712H256.179V65.032H246.611V59.4H257.395V55.688H246.611V49.928H242.611V55.688H237.683C238.227 54.216 238.739 52.712 239.187 51.176L235.251 50.312C234.163 54.664 232.083 59.08 229.587 61.768C230.547 62.28 232.243 63.432 233.011 64.04C234.067 62.792 235.059 61.16 235.987 59.4H242.611V65.032H233.939V68.712H242.611V75.144H230.259V78.888H259.027V75.144H246.611Z" fill="black"/>
<rect x="80" y="94" width="54" height="20" rx="10" fill="#12B981"/>
<path d="M93.108 108.292C91.788 108.292 91.572 108.184 91.572 107.44V104.884H97.02V105.448H98.508V99.508H89.616V100.924H97.02V103.48H91.572V101.848H90.096V107.44C90.096 109.252 90.804 109.708 93.12 109.708H97.092C99.276 109.708 99.804 109.048 100.08 106.792C99.66 106.708 99.012 106.468 98.64 106.24C98.46 107.98 98.268 108.292 97.032 108.292H93.108ZM104.564 100.6L103.916 100.936C104.144 101.296 104.396 101.812 104.48 102.136L105.632 101.512C105.548 101.26 105.344 100.912 105.14 100.6H106.904L106.832 100.66C107.132 100.84 107.72 101.2 107.984 101.428C108.212 101.2 108.464 100.924 108.692 100.612H109.964L109.268 100.972C109.604 101.38 110.012 101.968 110.168 102.352L111.344 101.728C111.188 101.404 110.852 100.984 110.552 100.612H112.496V99.556H109.34C109.424 99.4 109.496 99.232 109.556 99.076L108.212 98.752C107.948 99.4 107.492 100.084 106.964 100.552V99.544H104.264C104.336 99.388 104.396 99.244 104.456 99.088L103.136 98.74C102.752 99.76 102.08 100.792 101.336 101.428C101.66 101.608 102.236 101.98 102.488 102.208C102.896 101.776 103.328 101.224 103.7 100.6H104.564ZM104 105.532H105.524V106.3H104V105.532ZM108.752 107.248C108.416 108.148 107.564 108.772 106.424 109.132L106.676 108.856C106.28 108.604 105.656 108.232 105.092 107.932C105.176 107.8 105.272 107.644 105.356 107.488L104.204 107.212H106.748V104.62H102.836V107.212H104.096C103.604 108.052 102.536 108.676 101.348 109.036C101.6 109.264 102.032 109.78 102.188 110.044C102.956 109.744 103.688 109.324 104.3 108.808C104.852 109.12 105.464 109.516 105.848 109.792L106.412 109.132C106.676 109.36 107.108 109.828 107.276 110.068C107.936 109.792 108.548 109.42 109.028 108.952C109.94 109.252 110.936 109.66 111.548 109.972L112.388 108.976C111.728 108.688 110.684 108.28 109.748 107.992C109.844 107.812 109.928 107.644 110 107.452L108.752 107.248ZM109.988 106.3H108.428V105.532H109.988V106.3ZM111.224 104.62H107.264V107.212H111.224V104.62ZM105.44 103.288C105.956 103.036 106.436 102.76 106.88 102.46C107.288 102.748 107.78 103.036 108.284 103.288H105.44ZM106.832 100.996C105.668 102.1 103.448 102.928 101.492 103.348C101.792 103.672 102.14 104.128 102.284 104.476C103.148 104.236 104.036 103.924 104.864 103.564V104.236H108.836V103.54C109.76 103.924 110.768 104.224 111.74 104.404C111.908 104.056 112.292 103.528 112.58 103.264C110.78 103.036 108.776 102.496 107.72 101.824C107.804 101.74 107.888 101.668 107.972 101.584L106.832 100.996ZM118.084 106.252H120.244V105.016H118.084V103.948H116.728V105.016H114.544V106.252H116.728V107.884C115.756 108.04 114.856 108.184 114.136 108.28L114.448 109.6C116.08 109.312 118.348 108.904 120.448 108.496L120.376 107.272C119.62 107.392 118.84 107.524 118.084 107.656V106.252ZM116.284 102.46C116.656 101.944 117.028 101.344 117.328 100.768H118.768L117.76 101.356C117.988 101.656 118.228 101.992 118.456 102.34L116.284 102.46ZM114.256 100.768H115.78C115.492 101.392 115.168 101.932 115.036 102.112C114.856 102.376 114.664 102.568 114.484 102.616C114.628 102.988 114.856 103.624 114.94 103.912C115.288 103.768 115.804 103.708 119.116 103.432C119.224 103.648 119.32 103.852 119.392 104.032L120.472 103.324C120.172 102.616 119.428 101.548 118.804 100.768H120.496V99.544H114.256V100.768ZM122.284 99.952H120.964V107.2H122.284V99.952ZM123.256 98.98V108.244C123.256 108.448 123.184 108.52 122.98 108.52C122.776 108.52 122.128 108.52 121.492 108.496C121.684 108.88 121.912 109.492 121.972 109.864C122.908 109.864 123.592 109.816 124.048 109.6C124.504 109.372 124.648 109.012 124.648 108.256V98.98H123.256Z" fill="white"/>
<path opacity="0.54" d="M139.728 108.816H141.968V101.072L142.128 100.128L141.488 100.88L139.728 102.144L139.12 101.328L142.64 98.608H143.216V108.816H145.408V110H139.728V108.816ZM154.591 106.624C154.591 107.115 154.516 107.579 154.367 108.016C154.217 108.443 153.999 108.821 153.711 109.152C153.423 109.472 153.065 109.728 152.639 109.92C152.212 110.101 151.727 110.192 151.183 110.192C150.649 110.192 150.169 110.107 149.743 109.936C149.316 109.765 148.948 109.515 148.639 109.184C148.329 108.843 148.089 108.427 147.919 107.936C147.759 107.445 147.679 106.88 147.679 106.24C147.679 105.184 147.812 104.213 148.079 103.328C148.356 102.432 148.735 101.653 149.215 100.992C149.695 100.331 150.26 99.7973 150.911 99.392C151.572 98.976 152.287 98.7147 153.055 98.608L153.327 99.632C152.729 99.7387 152.185 99.9413 151.695 100.24C151.204 100.539 150.772 100.907 150.399 101.344C150.036 101.781 149.737 102.272 149.503 102.816C149.268 103.36 149.108 103.92 149.023 104.496C149.193 104.208 149.481 103.947 149.887 103.712C150.292 103.467 150.788 103.344 151.375 103.344C152.377 103.344 153.161 103.632 153.727 104.208C154.303 104.784 154.591 105.589 154.591 106.624ZM153.263 106.752C153.263 105.995 153.087 105.424 152.735 105.04C152.383 104.656 151.839 104.464 151.103 104.464C150.58 104.464 150.127 104.592 149.743 104.848C149.369 105.104 149.108 105.392 148.959 105.712C148.937 105.861 148.927 105.984 148.927 106.08C148.927 106.176 148.927 106.283 148.927 106.4C148.927 106.731 148.969 107.056 149.055 107.376C149.151 107.696 149.295 107.984 149.487 108.24C149.679 108.485 149.913 108.688 150.191 108.848C150.479 108.997 150.815 109.072 151.199 109.072C151.508 109.072 151.785 109.013 152.031 108.896C152.287 108.779 152.505 108.619 152.687 108.416C152.868 108.213 153.007 107.968 153.103 107.68C153.209 107.392 153.263 107.083 153.263 106.752Z" fill="#191919"/>
<rect x="168" y="94" width="54" height="20" rx="10" fill="#F49E0B"/>
<path d="M187.876 105.004V103.588H183.256V102.052H187.012V100.636H183.256V98.848H181.732V100.636H178.084V102.052H181.732V103.588H177.184V105.004H181.072C180.016 106.336 178.384 107.608 176.788 108.292C177.124 108.592 177.592 109.168 177.832 109.528C179.236 108.796 180.64 107.632 181.732 106.312V110.056H183.256V106.24C184.348 107.608 185.74 108.808 187.156 109.54C187.396 109.168 187.852 108.592 188.188 108.304C186.592 107.608 184.96 106.336 183.916 105.004H187.876ZM192.564 100.6L191.916 100.936C192.144 101.296 192.396 101.812 192.48 102.136L193.632 101.512C193.548 101.26 193.344 100.912 193.14 100.6H194.904L194.832 100.66C195.132 100.84 195.72 101.2 195.984 101.428C196.212 101.2 196.464 100.924 196.692 100.612H197.964L197.268 100.972C197.604 101.38 198.012 101.968 198.168 102.352L199.344 101.728C199.188 101.404 198.852 100.984 198.552 100.612H200.496V99.556H197.34C197.424 99.4 197.496 99.232 197.556 99.076L196.212 98.752C195.948 99.4 195.492 100.084 194.964 100.552V99.544H192.264C192.336 99.388 192.396 99.244 192.456 99.088L191.136 98.74C190.752 99.76 190.08 100.792 189.336 101.428C189.66 101.608 190.236 101.98 190.488 102.208C190.896 101.776 191.328 101.224 191.7 100.6H192.564ZM192 105.532H193.524V106.3H192V105.532ZM196.752 107.248C196.416 108.148 195.564 108.772 194.424 109.132L194.676 108.856C194.28 108.604 193.656 108.232 193.092 107.932C193.176 107.8 193.272 107.644 193.356 107.488L192.204 107.212H194.748V104.62H190.836V107.212H192.096C191.604 108.052 190.536 108.676 189.348 109.036C189.6 109.264 190.032 109.78 190.188 110.044C190.956 109.744 191.688 109.324 192.3 108.808C192.852 109.12 193.464 109.516 193.848 109.792L194.412 109.132C194.676 109.36 195.108 109.828 195.276 110.068C195.936 109.792 196.548 109.42 197.028 108.952C197.94 109.252 198.936 109.66 199.548 109.972L200.388 108.976C199.728 108.688 198.684 108.28 197.748 107.992C197.844 107.812 197.928 107.644 198 107.452L196.752 107.248ZM197.988 106.3H196.428V105.532H197.988V106.3ZM199.224 104.62H195.264V107.212H199.224V104.62ZM193.44 103.288C193.956 103.036 194.436 102.76 194.88 102.46C195.288 102.748 195.78 103.036 196.284 103.288H193.44ZM194.832 100.996C193.668 102.1 191.448 102.928 189.492 103.348C189.792 103.672 190.14 104.128 190.284 104.476C191.148 104.236 192.036 103.924 192.864 103.564V104.236H196.836V103.54C197.76 103.924 198.768 104.224 199.74 104.404C199.908 104.056 200.292 103.528 200.58 103.264C198.78 103.036 196.776 102.496 195.72 101.824C195.804 101.74 195.888 101.668 195.972 101.584L194.832 100.996ZM206.084 106.252H208.244V105.016H206.084V103.948H204.728V105.016H202.544V106.252H204.728V107.884C203.756 108.04 202.856 108.184 202.136 108.28L202.448 109.6C204.08 109.312 206.348 108.904 208.448 108.496L208.376 107.272C207.62 107.392 206.84 107.524 206.084 107.656V106.252ZM204.284 102.46C204.656 101.944 205.028 101.344 205.328 100.768H206.768L205.76 101.356C205.988 101.656 206.228 101.992 206.456 102.34L204.284 102.46ZM202.256 100.768H203.78C203.492 101.392 203.168 101.932 203.036 102.112C202.856 102.376 202.664 102.568 202.484 102.616C202.628 102.988 202.856 103.624 202.94 103.912C203.288 103.768 203.804 103.708 207.116 103.432C207.224 103.648 207.32 103.852 207.392 104.032L208.472 103.324C208.172 102.616 207.428 101.548 206.804 100.768H208.496V99.544H202.256V100.768ZM210.284 99.952H208.964V107.2H210.284V99.952ZM211.256 98.98V108.244C211.256 108.448 211.184 108.52 210.98 108.52C210.776 108.52 210.128 108.52 209.492 108.496C209.684 108.88 209.912 109.492 209.972 109.864C210.908 109.864 211.592 109.816 212.048 109.6C212.504 109.372 212.648 109.012 212.648 108.256V98.98H211.256Z" fill="white"/>
<path opacity="0.54" d="M229.408 109.072C230.144 109.072 230.752 108.859 231.232 108.432C231.712 108.005 231.952 107.387 231.952 106.576C231.952 105.797 231.712 105.216 231.232 104.832C230.763 104.448 230.112 104.256 229.28 104.256L227.936 104.336V98.8H232.928V99.984H229.136V103.168L229.824 103.136C230.88 103.147 231.712 103.44 232.32 104.016C232.928 104.592 233.232 105.419 233.232 106.496C233.232 107.093 233.131 107.627 232.928 108.096C232.725 108.555 232.448 108.939 232.096 109.248C231.755 109.557 231.349 109.792 230.88 109.952C230.411 110.112 229.909 110.192 229.376 110.192C228.896 110.192 228.491 110.165 228.16 110.112C227.829 110.059 227.52 109.979 227.232 109.872L227.568 108.784C227.813 108.88 228.075 108.955 228.352 109.008C228.64 109.051 228.992 109.072 229.408 109.072Z" fill="#191919"/>
<rect x="246" y="94" width="42" height="20" rx="10" fill="#EE4444"/>
<path d="M262.49 101.704V103.804H263.774V103.42C264.374 103.66 265.082 104.044 265.502 104.308L266.126 103.528C265.67 103.276 264.842 102.892 264.23 102.664L263.774 103.168V101.704H262.49ZM264.626 100.132V100.648H260.138V100.132H264.626ZM262.526 105.664V106.312H260.954C261.098 106.12 261.242 105.904 261.386 105.664H262.526ZM260.45 104.272L260.918 104.08C260.726 104.728 260.402 105.4 259.97 105.88C260.21 105.976 260.642 106.156 260.87 106.312H259.934V107.26H262.526V108.304H263.714V107.26H266.126V106.312H263.714V105.664H265.742V104.728H263.714V104.068H262.526V104.728H261.818C261.878 104.584 261.926 104.428 261.962 104.284L260.966 104.068C261.422 103.9 261.89 103.708 262.346 103.504L262.178 102.712C261.422 102.964 260.678 103.228 260.126 103.384C260.138 103.072 260.138 102.772 260.138 102.496V101.56H261.014L260.27 101.968C260.654 102.244 261.098 102.664 261.338 102.928L262.238 102.352C262.01 102.124 261.626 101.812 261.254 101.56H264.854C264.614 101.812 264.23 102.136 263.954 102.364L264.902 102.844C265.238 102.64 265.658 102.34 266.066 101.992L265.154 101.56H265.946V99.22H258.938V102.496C258.938 103.996 258.878 106.036 258.098 107.464C258.386 107.572 258.938 107.908 259.166 108.1C259.85 106.84 260.066 105.028 260.126 103.492L260.45 104.272ZM258.062 100.648C257.702 100.168 257.042 99.424 256.466 98.848L255.41 99.508C255.962 100.096 256.646 100.936 256.982 101.44L258.062 100.648ZM257.69 104.488L257.462 104.524H256.826C257.366 103.696 258.038 102.568 258.41 101.908L257.546 101.572L257.354 101.644H255.266V102.772H256.622C256.25 103.408 255.83 104.08 255.65 104.284C255.446 104.524 255.254 104.62 255.062 104.668C255.194 104.92 255.446 105.52 255.518 105.808C255.626 105.712 255.962 105.628 256.214 105.628H256.97C256.622 107.224 255.938 108.412 254.942 109.096C255.218 109.276 255.686 109.768 255.878 110.056C256.43 109.624 256.922 109.048 257.306 108.292C258.242 109.6 259.634 109.84 261.89 109.84C263.282 109.84 264.818 109.816 266.066 109.732C266.138 109.348 266.318 108.7 266.522 108.412C265.166 108.544 263.186 108.616 261.926 108.616C259.886 108.604 258.518 108.436 257.822 107.116C258.062 106.408 258.254 105.628 258.362 104.74L257.69 104.488ZM271.834 106.252H273.994V105.016H271.834V103.948H270.478V105.016H268.294V106.252H270.478V107.884C269.506 108.04 268.606 108.184 267.886 108.28L268.198 109.6C269.83 109.312 272.098 108.904 274.198 108.496L274.126 107.272C273.37 107.392 272.59 107.524 271.834 107.656V106.252ZM270.034 102.46C270.406 101.944 270.778 101.344 271.078 100.768H272.518L271.51 101.356C271.738 101.656 271.978 101.992 272.206 102.34L270.034 102.46ZM268.006 100.768H269.53C269.242 101.392 268.918 101.932 268.786 102.112C268.606 102.376 268.414 102.568 268.234 102.616C268.378 102.988 268.606 103.624 268.69 103.912C269.038 103.768 269.554 103.708 272.866 103.432C272.974 103.648 273.07 103.852 273.142 104.032L274.222 103.324C273.922 102.616 273.178 101.548 272.554 100.768H274.246V99.544H268.006V100.768ZM276.034 99.952H274.714V107.2H276.034V99.952ZM277.006 98.98V108.244C277.006 108.448 276.934 108.52 276.73 108.52C276.526 108.52 275.878 108.52 275.242 108.496C275.434 108.88 275.662 109.492 275.722 109.864C276.658 109.864 277.342 109.816 277.798 109.6C278.254 109.372 278.398 109.012 278.398 108.256V98.98H277.006Z" fill="white"/>
<path opacity="0.54" d="M297.728 108.816H299.968V101.072L300.128 100.128L299.488 100.88L297.728 102.144L297.12 101.328L300.64 98.608H301.216V108.816H303.408V110H297.728V108.816ZM308.127 109.072C308.863 109.072 309.471 108.859 309.951 108.432C310.431 108.005 310.671 107.387 310.671 106.576C310.671 105.797 310.431 105.216 309.951 104.832C309.481 104.448 308.831 104.256 307.999 104.256L306.655 104.336V98.8H311.647V99.984H307.855V103.168L308.543 103.136C309.599 103.147 310.431 103.44 311.039 104.016C311.647 104.592 311.951 105.419 311.951 106.496C311.951 107.093 311.849 107.627 311.647 108.096C311.444 108.555 311.167 108.939 310.815 109.248C310.473 109.557 310.068 109.792 309.599 109.952C309.129 110.112 308.628 110.192 308.095 110.192C307.615 110.192 307.209 110.165 306.879 110.112C306.548 110.059 306.239 109.979 305.951 109.872L306.287 108.784C306.532 108.88 306.793 108.955 307.071 109.008C307.359 109.051 307.711 109.072 308.127 109.072Z" fill="#191919"/>
<path d="M380.333 84.7667L376.5 81.55L375.425 82.825L379.258 86.0417L380.333 84.7667ZM368.567 82.825L367.5 81.55L363.667 84.7584L364.742 86.0334L368.567 82.825ZM372.417 86.6667H371.167V91.6667L375.125 94.0417L375.75 93.0167L372.417 91.0417V86.6667ZM372 83.3334C367.858 83.3334 364.5 86.6917 364.5 90.8334C364.5 94.975 367.85 98.3334 372 98.3334C376.142 98.3334 379.5 94.975 379.5 90.8334C379.5 86.6917 376.142 83.3334 372 83.3334ZM372 96.6667C368.775 96.6667 366.167 94.0584 366.167 90.8334C366.167 87.6084 368.775 85 372 85C375.225 85 377.833 87.6084 377.833 90.8334C377.833 94.0584 375.225 96.6667 372 96.6667Z" fill="#757575"/>
<path d="M393.55 87.344C393.55 87.9093 393.443 88.4907 393.23 89.088C393.027 89.6747 392.755 90.2667 392.414 90.864C392.083 91.4613 391.71 92.048 391.294 92.624C390.878 93.1893 390.462 93.728 390.046 94.24L389.262 94.928V94.992L390.286 94.816H393.774V96H387.406V95.536C387.641 95.2907 387.923 94.9867 388.254 94.624C388.585 94.2613 388.926 93.8613 389.278 93.424C389.641 92.976 389.993 92.5067 390.334 92.016C390.686 91.5147 391.001 91.008 391.278 90.496C391.566 89.984 391.795 89.4773 391.966 88.976C392.137 88.4747 392.222 88 392.222 87.552C392.222 87.0293 392.073 86.5973 391.774 86.256C391.475 85.904 391.022 85.728 390.414 85.728C390.009 85.728 389.614 85.8133 389.23 85.984C388.846 86.144 388.515 86.3307 388.238 86.544L387.71 85.632C388.083 85.312 388.526 85.0613 389.038 84.88C389.55 84.6987 390.099 84.608 390.686 84.608C391.145 84.608 391.55 84.6773 391.902 84.816C392.254 84.944 392.553 85.1307 392.798 85.376C393.043 85.6213 393.23 85.9147 393.358 86.256C393.486 86.5867 393.55 86.9493 393.55 87.344ZM398.541 95.072C399.277 95.072 399.885 94.8587 400.365 94.432C400.845 94.0053 401.085 93.3867 401.085 92.576C401.085 91.7973 400.845 91.216 400.365 90.832C399.895 90.448 399.245 90.256 398.413 90.256L397.069 90.336V84.8H402.061V85.984H398.269V89.168L398.957 89.136C400.013 89.1467 400.845 89.44 401.453 90.016C402.061 90.592 402.365 91.4187 402.365 92.496C402.365 93.0933 402.263 93.6267 402.061 94.096C401.858 94.5547 401.581 94.9387 401.229 95.248C400.887 95.5573 400.482 95.792 400.013 95.952C399.543 96.112 399.042 96.192 398.509 96.192C398.029 96.192 397.623 96.1653 397.293 96.112C396.962 96.0587 396.653 95.9787 396.365 95.872L396.701 94.784C396.946 94.88 397.207 94.9547 397.485 95.008C397.773 95.0507 398.125 95.072 398.541 95.072ZM408.604 93.824C408.604 93.504 408.508 93.2533 408.316 93.072C408.124 92.8907 407.884 92.7413 407.596 92.624C407.318 92.496 407.009 92.3787 406.668 92.272C406.337 92.1547 406.028 92.0107 405.74 91.84C405.462 91.6587 405.228 91.4293 405.036 91.152C404.844 90.8747 404.748 90.5013 404.748 90.032C404.748 89.264 404.966 88.704 405.404 88.352C405.841 87.9893 406.449 87.808 407.228 87.808C407.804 87.808 408.284 87.8613 408.668 87.968C409.062 88.064 409.404 88.1813 409.692 88.32L409.388 89.376C409.142 89.2587 408.844 89.1573 408.492 89.072C408.15 88.976 407.782 88.928 407.388 88.928C406.918 88.928 406.572 89.008 406.348 89.168C406.134 89.328 406.028 89.6053 406.028 90C406.028 90.2773 406.124 90.496 406.316 90.656C406.508 90.8053 406.742 90.944 407.02 91.072C407.308 91.1893 407.617 91.3067 407.948 91.424C408.289 91.5413 408.598 91.696 408.876 91.888C409.164 92.08 409.404 92.3253 409.596 92.624C409.788 92.912 409.884 93.296 409.884 93.776C409.884 94.1173 409.825 94.4373 409.708 94.736C409.601 95.0347 409.43 95.2907 409.196 95.504C408.961 95.7173 408.668 95.8827 408.316 96C407.974 96.128 407.569 96.192 407.1 96.192C406.492 96.192 405.974 96.1333 405.548 96.016C405.121 95.8987 404.764 95.76 404.476 95.6L404.86 94.512C405.105 94.6507 405.425 94.7787 405.82 94.896C406.214 95.0133 406.614 95.072 407.02 95.072C407.478 95.072 407.857 94.9813 408.156 94.8C408.454 94.6187 408.604 94.2933 408.604 93.824Z" fill="#757575"/>
<path d="M445.57 91.2V90.48H448.226V91.2H445.57ZM445.57 88.624H448.226V89.344H445.57V88.624ZM452.946 88.624V89.344H450.146V88.624H452.946ZM452.946 91.2H450.146V90.48H452.946V91.2ZM450.146 95.44V94.592H455.49V93.168H450.146V92.448H454.898V87.376H450.146V86.768H456.418V85.28H450.146V84.448C451.89 84.32 453.554 84.144 454.946 83.92L454.066 82.448C451.362 82.896 447.026 83.168 443.298 83.248C443.458 83.632 443.666 84.272 443.682 84.704C445.122 84.688 446.69 84.64 448.226 84.576V85.28H442.114V86.768H448.226V87.376H443.714V92.448H448.226V93.168H443.186V94.592H448.226V95.44H442.018V96.944H456.53V95.44H450.146ZM459.622 92.48C459.286 93.472 458.758 94.56 458.214 95.312C458.566 95.52 459.174 95.936 459.462 96.176C460.022 95.36 460.678 94.048 461.078 92.896L459.622 92.48ZM463.382 85.584C463.222 86.176 462.934 86.992 462.694 87.568H460.39L461.542 87.248C461.462 86.8 461.254 86.112 461.014 85.584H463.382ZM465.798 91.968V90.368H463.318V89.136H466.054V87.568H464.39C464.63 87.072 464.87 86.448 465.11 85.84L463.814 85.584H465.814V84.032H463.526C463.334 83.488 463.046 82.832 462.806 82.304L460.902 82.768C461.062 83.152 461.238 83.6 461.382 84.032H458.646V85.584H460.806L459.494 85.904C459.686 86.4 459.878 87.088 459.958 87.568H458.406V89.136H461.478V90.368H458.502V91.968H461.478V97.28H463.318V91.968H465.798ZM473.19 87.712H468.358V85.2C469.926 84.912 471.59 84.528 472.902 84L471.446 82.608C470.278 83.152 468.342 83.648 466.598 83.968V89.664C466.598 91.136 466.55 92.864 466.102 94.4C465.83 93.792 465.334 92.944 464.902 92.304L463.654 92.976C464.102 93.712 464.646 94.736 464.902 95.376L466.038 94.672C465.862 95.232 465.622 95.76 465.318 96.224C465.718 96.416 466.47 97.024 466.79 97.36C468.15 95.312 468.358 92.016 468.358 89.664V89.472H469.846V97.328H471.702V89.472H473.19V87.712ZM483.146 94.624H487.274V93.232H483.146V92.432H488.554V90.896H475.93V92.432H481.274V95.44H479.162V93.04H477.338V95.44H474.97V97.008H489.546V95.44H483.146V94.624ZM486.65 85.6C486.458 86.176 486.218 86.672 485.898 87.12C485.466 86.624 485.114 86.128 484.858 85.6H486.65ZM479.69 88.64V88.112H480.122L479.69 88.64ZM476.954 86.192H478.026V87.008H476.954V86.192ZM480.666 86.192V87.008H479.69V86.192H480.666ZM489.482 85.6V84.08H485.482C485.626 83.68 485.77 83.28 485.898 82.864L484.202 82.464C483.834 83.84 483.13 85.136 482.218 86.016V85.072H479.69V84.528H482.458V83.2H479.69V82.432H478.026V83.2H475.114V84.528H478.026V85.072H475.482V88.112H477.354C476.65 88.752 475.69 89.328 474.778 89.664C475.13 89.936 475.61 90.496 475.85 90.864C476.586 90.496 477.37 89.936 478.026 89.28V90.544H479.69V88.912C480.314 89.28 481.034 89.792 481.402 90.16L482.186 89.104C481.85 88.816 481.258 88.432 480.698 88.112H482.218V86.48C482.57 86.832 483.002 87.312 483.194 87.568C483.434 87.36 483.658 87.104 483.882 86.832C484.154 87.312 484.474 87.776 484.826 88.224C484.106 88.8 483.178 89.216 482.09 89.52C482.426 89.84 482.986 90.528 483.146 90.88C484.25 90.496 485.178 90 485.978 89.36C486.73 90.016 487.658 90.544 488.746 90.912C488.97 90.48 489.434 89.776 489.786 89.44C488.746 89.168 487.834 88.736 487.114 88.208C487.674 87.488 488.122 86.624 488.426 85.6H489.482ZM496.494 92.4C495.982 92.576 495.454 92.736 494.926 92.896V89.696H496.366V87.952H494.926V85.136H496.638V83.36H491.358V85.136H493.118V87.952H491.502V89.696H493.118V93.456C492.382 93.664 491.726 93.84 491.166 93.984L491.598 95.92C493.134 95.424 495.054 94.816 496.814 94.192L496.494 92.4ZM498.958 87.568H500.606V88.944H498.958V87.568ZM498.958 84.736H500.606V86.08H498.958V84.736ZM503.79 86.08H502.206V84.736H503.79V86.08ZM503.79 88.944H502.206V87.568H503.79V88.944ZM502.382 95.168V93.648H505.774V91.936H502.382V90.56H505.598V83.12H497.246V90.56H500.446V91.936H497.134V93.648H500.446V95.168H496.03V96.896H506.318V95.168H502.382ZM514.178 95.04V91.92H519.602V95.04H514.178ZM516.994 85.68C516.418 86.736 515.666 87.728 514.77 88.608C514.098 87.92 513.074 87.12 512.226 86.496C512.498 86.224 512.754 85.952 513.01 85.68H516.994ZM521.586 90.192H515.874C517.474 88.672 518.77 86.8 519.586 84.608L518.274 83.92L517.954 84.016H514.322C514.61 83.6 514.882 83.184 515.122 82.768L512.978 82.368C512.05 84.112 510.29 86.064 507.666 87.456C508.098 87.776 508.722 88.48 509.01 88.944C509.65 88.56 510.242 88.16 510.786 87.728C511.634 88.4 512.594 89.232 513.234 89.936C511.57 91.168 509.634 92.128 507.634 92.704C508.034 93.088 508.514 93.872 508.738 94.4C509.954 93.984 511.154 93.472 512.274 92.832V97.376H514.178V96.752H519.602V97.392H521.586V90.192ZM536.23 85.136H533.942V84.208H536.23V85.136ZM538.006 83.072H532.262V86.272H538.006V83.072ZM529.51 85.136H527.27V84.208H529.51V85.136ZM531.286 83.072H525.574V86.272H531.286V83.072ZM528.006 91.44V90.576H530.71V91.44H528.006ZM528.006 88.368H530.71V89.216H528.006V88.368ZM535.542 89.216H532.662V88.368H535.542V89.216ZM535.542 91.44H532.662V90.576H535.542V91.44ZM538.886 93.728H532.662V92.896H537.494V86.896H526.15V92.896H530.71V93.728H524.63V95.36H530.71V97.392H532.662V95.36H538.886V93.728Z" fill="#424242"/>
<rect x="422" y="67" width="137" height="46" rx="7" stroke="black" stroke-opacity="0.25" stroke-width="2"/>
<rect x="80" y="140" width="480" height="120" rx="8" fill="#EEEEEE"/>
<rect x="80" y="140" width="140" height="120" fill="#12B981"/>
<path d="M144.615 216.36H147.951V206.88L148.311 205.248L147.159 206.664L145.023 208.128L143.703 206.328L149.175 201.912H150.927V216.36H154.191V219H144.615V216.36Z" fill="white"/>
<path opacity="0.54" d="M143.558 181.344C143.558 181.909 143.451 182.491 143.238 183.088C143.035 183.675 142.763 184.267 142.422 184.864C142.091 185.461 141.718 186.048 141.302 186.624C140.886 187.189 140.47 187.728 140.054 188.24L139.27 188.928V188.992L140.294 188.816H143.782V190H137.414V189.536C137.649 189.291 137.931 188.987 138.262 188.624C138.593 188.261 138.934 187.861 139.286 187.424C139.649 186.976 140.001 186.507 140.342 186.016C140.694 185.515 141.009 185.008 141.286 184.496C141.574 183.984 141.803 183.477 141.974 182.976C142.145 182.475 142.23 182 142.23 181.552C142.23 181.029 142.081 180.597 141.782 180.256C141.483 179.904 141.03 179.728 140.422 179.728C140.017 179.728 139.622 179.813 139.238 179.984C138.854 180.144 138.523 180.331 138.246 180.544L137.718 179.632C138.091 179.312 138.534 179.061 139.046 178.88C139.558 178.699 140.107 178.608 140.694 178.608C141.153 178.608 141.558 178.677 141.91 178.816C142.262 178.944 142.561 179.131 142.806 179.376C143.051 179.621 143.238 179.915 143.366 180.256C143.494 180.587 143.558 180.949 143.558 181.344ZM145.829 184.4C145.829 182.48 146.138 181.035 146.757 180.064C147.386 179.093 148.298 178.608 149.493 178.608C150.783 178.608 151.717 179.088 152.293 180.048C152.879 180.997 153.173 182.448 153.173 184.4C153.173 186.32 152.858 187.765 152.229 188.736C151.61 189.707 150.698 190.192 149.493 190.192C148.223 190.192 147.295 189.685 146.709 188.672C146.122 187.659 145.829 186.235 145.829 184.4ZM147.157 184.4C147.157 185.093 147.199 185.728 147.285 186.304C147.381 186.869 147.525 187.36 147.717 187.776C147.909 188.181 148.149 188.501 148.437 188.736C148.735 188.96 149.087 189.072 149.493 189.072C150.303 189.072 150.895 188.699 151.269 187.952C151.653 187.195 151.845 186.011 151.845 184.4C151.845 183.717 151.802 183.088 151.717 182.512C151.642 181.936 151.509 181.44 151.317 181.024C151.135 180.608 150.895 180.288 150.597 180.064C150.298 179.84 149.93 179.728 149.493 179.728C148.693 179.728 148.101 180.107 147.717 180.864C147.343 181.621 147.157 182.8 147.157 184.4ZM157.603 189.072C157.966 189.072 158.302 189.019 158.611 188.912C158.921 188.805 159.187 188.651 159.411 188.448C159.635 188.235 159.811 187.984 159.939 187.696C160.067 187.408 160.131 187.093 160.131 186.752C160.131 186.005 159.907 185.451 159.459 185.088C159.022 184.725 158.414 184.544 157.635 184.544H156.451V184.08L158.755 180.528L159.491 179.824L158.451 179.984H155.283V178.8H160.995V179.264L158.451 183.088L157.891 183.552V183.584L158.435 183.472C158.862 183.483 159.257 183.563 159.619 183.712C159.982 183.851 160.297 184.059 160.563 184.336C160.83 184.603 161.038 184.928 161.187 185.312C161.337 185.685 161.411 186.112 161.411 186.592C161.411 187.168 161.31 187.68 161.107 188.128C160.905 188.576 160.627 188.955 160.275 189.264C159.934 189.563 159.529 189.792 159.059 189.952C158.59 190.112 158.094 190.192 157.571 190.192C157.091 190.192 156.659 190.155 156.275 190.08C155.891 190.005 155.555 189.909 155.267 189.792L155.603 188.656C155.849 188.773 156.137 188.875 156.467 188.96C156.809 189.035 157.187 189.072 157.603 189.072Z" fill="white"/>
<path d="M264.948 204.148H255.444V200.62H264.948V204.148ZM269.232 197.02H251.376V207.784H269.232V197.02ZM257.712 224.344C262.176 225.784 268.62 228.052 271.752 229.456L273.696 225.82C270.384 224.524 263.796 222.4 259.548 221.176L257.712 224.344ZM266.676 213.544V216.712H259.44C259.584 215.704 259.692 214.696 259.8 213.544H266.676ZM271.032 216.712V209.692H248.964V198.604H244.644V213.544H255.516C255.444 214.696 255.336 215.74 255.156 216.712H241.872V220.6H253.824C252.096 223.228 248.604 224.776 241.116 225.676C241.872 226.54 242.808 228.196 243.06 229.24C252.816 227.836 256.776 225.136 258.468 220.6H274.164V216.712H271.032ZM289.318 223.48H283.378V220.06H289.318V223.48ZM282.37 204.472C283.774 203.248 285.07 201.88 286.258 200.404C287.806 201.664 289.462 203.14 290.722 204.472H282.37ZM288.418 207.964H291.118V204.904C291.586 205.408 292.018 205.876 292.342 206.308L294.718 202.996C293.35 201.448 290.794 199.216 288.346 197.452C288.526 197.164 288.706 196.876 288.886 196.588L285.322 195.184C283.558 198.244 280.354 201.088 277.402 202.852C277.978 203.86 278.986 206.056 279.238 206.956C279.958 206.452 280.678 205.912 281.434 205.3V207.964H284.422V210.448H278.698V213.94H284.422V216.604H279.49V228.628H283.378V226.972H289.318V227.908H293.35V216.604H288.418V213.94H293.638V210.448H288.418V207.964ZM308.11 208.288L307.498 208.432H304.834L305.878 207.532C305.41 206.956 304.798 206.308 304.042 205.732C306.382 203.716 308.614 201.016 310.198 198.532L307.606 196.66L306.778 196.876H294.97V200.656H303.934C303.178 201.7 302.278 202.708 301.414 203.608C300.334 202.816 299.218 202.096 298.21 201.484L295.366 203.752C297.418 205.048 299.722 206.812 301.378 208.432H294.07V212.284H299.902V224.704C299.902 225.1 299.758 225.208 299.326 225.244C298.858 225.244 297.346 225.244 296.014 225.172C296.482 226.324 297.022 227.98 297.13 229.132C299.47 229.132 301.162 229.096 302.35 228.448C303.646 227.8 303.934 226.72 303.934 224.74V212.284H306.238C305.914 213.868 305.59 215.344 305.266 216.424L308.686 217.18C309.406 215.056 310.27 211.78 310.918 208.9L308.11 208.288ZM323.336 199.216C322.04 198.208 319.484 196.84 317.756 195.94L315.308 199.036C317.108 200.044 319.628 201.592 320.78 202.6L323.336 199.216ZM321.536 208.936C320.276 207.964 317.684 206.452 315.956 205.516L313.508 208.576C315.308 209.62 317.792 211.276 318.98 212.32L321.536 208.936ZM318.548 228.016C319.88 224.668 321.248 220.744 322.328 217.108L318.728 214.84C317.504 218.836 315.812 223.12 314.552 225.856L318.548 228.016ZM326.864 223.984V217.252L328.376 219.772C329.888 218.584 331.4 217.252 332.876 215.992V219.268C332.876 219.664 332.768 219.772 332.336 219.772C331.94 219.772 330.68 219.772 329.492 219.736C329.924 220.744 330.428 222.148 330.536 223.156C332.624 223.156 334.208 223.12 335.288 222.544C336.44 221.968 336.764 221.104 336.764 219.34V216.208C338.132 217.36 339.536 218.692 340.256 219.7L342.308 217.72V223.984H326.864ZM338.528 212.572C339.536 211.672 340.904 210.34 342.308 209.044V216.784C341.228 215.596 339.464 214.156 337.952 213.076L336.764 214.156V211.06L338.528 212.572ZM342.308 203.824V208.9L339.5 206.668C338.852 207.676 337.7 209.152 336.764 210.196V205.552C339.68 203.752 342.56 201.34 344.576 199L341.948 197.02L341.084 197.236H324.632V201.16H337.052C335.756 202.276 334.316 203.284 332.876 204.04V210.592C332.156 209.368 330.932 207.856 329.852 206.776L327.188 208.324C328.376 209.692 329.78 211.6 330.32 212.896L332.876 211.276V215.524L331.724 212.968C329.924 214.3 328.16 215.56 326.864 216.424V203.68H322.688V227.692H342.308V229.06H346.304V203.86L342.308 203.824Z" fill="black"/>
<path d="M245.664 181.6C243.936 181.6 243.584 181.376 243.584 180.368V176.144H251.936V176.928H253.152V169.616H241.536V170.784H251.936V174.976H243.584V172.352H242.384V180.352C242.384 182.32 243.184 182.768 245.744 182.768H251.728C254.336 182.768 254.864 181.904 255.168 178.976C254.816 178.912 254.288 178.72 253.968 178.496C253.744 181.072 253.488 181.6 251.744 181.6H245.664ZM271.216 170.672V169.744H266.4C266.592 169.424 266.752 169.12 266.896 168.8L265.776 168.544C265.344 169.504 264.576 170.448 263.744 171.088C264.016 171.232 264.48 171.568 264.704 171.76C265.04 171.456 265.408 171.072 265.744 170.672H271.216ZM269.536 172.56C269.312 172.016 268.752 171.248 268.24 170.688L267.344 171.12C267.824 171.712 268.352 172.512 268.56 173.04L269.536 172.56ZM263.856 170.624V169.696H259.744C259.872 169.408 260 169.12 260.112 168.832L258.992 168.544C258.48 169.952 257.616 171.344 256.656 172.272C256.928 172.432 257.408 172.736 257.616 172.928C258.192 172.32 258.768 171.52 259.264 170.624H263.856ZM261.728 172.368C261.616 171.92 261.312 171.2 261.008 170.688L260.08 171.088C260.368 171.632 260.672 172.368 260.768 172.832L261.728 172.368ZM263.232 181.984C262.72 181.6 261.824 181.056 261.008 180.656C261.216 180.4 261.408 180.112 261.552 179.808L260.496 179.568C259.808 180.896 258.304 181.872 256.672 182.464C256.88 182.656 257.264 183.072 257.408 183.296C258.464 182.848 259.52 182.208 260.352 181.392C261.136 181.824 262.016 182.384 262.512 182.784L263.232 181.984ZM261.2 175.312H266.656V174.448H261.2V175.312ZM265.536 176.912H268.512V178.576H265.536V176.912ZM264.544 179.408H269.568V176.064H264.544V179.408ZM259.744 176.912H262.64V178.576H259.744V176.912ZM258.736 179.408H263.696V176.064H258.736V179.408ZM266.56 179.584C266.048 180.976 264.736 181.936 263.152 182.512C263.376 182.704 263.776 183.088 263.904 183.296C264.928 182.864 265.872 182.256 266.592 181.456C267.92 181.952 269.44 182.656 270.288 183.152L271.04 182.304C270.112 181.808 268.544 181.12 267.2 180.656C267.36 180.384 267.504 180.08 267.616 179.776L266.56 179.584ZM264.016 171.52C262.432 173.024 259.424 174.192 256.768 174.8C257.024 175.056 257.312 175.472 257.456 175.744C259.712 175.152 262.112 174.16 263.888 172.896C265.552 174.064 268.32 175.12 270.576 175.616C270.752 175.328 271.056 174.88 271.312 174.64C269.008 174.24 266.08 173.328 264.576 172.368C264.72 172.256 264.848 172.144 264.976 172.016L264.016 171.52ZM277.856 177.984H281.04V176.928H277.856V175.216H276.72V176.928H273.6V177.984H276.72V180.672C275.328 180.912 274.032 181.152 273.056 181.312L273.312 182.416C275.408 182.016 278.432 181.44 281.264 180.896L281.184 179.856C280.08 180.064 278.944 180.272 277.856 180.48V177.984ZM273.184 170.72H275.712C275.2 171.856 274.56 172.848 274.32 173.168C274.048 173.552 273.808 173.824 273.552 173.872C273.696 174.176 273.888 174.736 273.952 174.992C274.336 174.816 274.912 174.752 279.888 174.272C280.128 174.64 280.32 174.992 280.448 175.264L281.36 174.672C280.896 173.76 279.84 172.32 278.944 171.248L278.096 171.76C278.48 172.24 278.896 172.784 279.28 173.344L275.2 173.696C275.84 172.848 276.496 171.776 277.04 170.72H281.36V169.664H273.184V170.72ZM283.36 170H282.24V179.616H283.36V170ZM285.376 168.88V181.376C285.376 181.648 285.312 181.712 285.04 181.728C284.768 181.744 283.888 181.744 282.96 181.712C283.136 182.032 283.344 182.576 283.392 182.88C284.544 182.88 285.392 182.848 285.888 182.656C286.368 182.48 286.544 182.112 286.544 181.36V168.88H285.376Z" fill="#757575"/>
<rect x="80" y="270" width="480" height="120" rx="8" fill="#EEEEEE"/>
<rect x="80" y="270" width="140" height="120" fill="#F49E0B"/>
<path d="M153.591 336.304C153.591 337.12 153.439 337.944 153.135 338.776C152.847 339.608 152.471 340.424 152.007 341.224C151.559 342.024 151.055 342.8 150.495 343.552C149.951 344.288 149.415 344.968 148.887 345.592L147.615 346.576V346.696L149.343 346.36H153.951V349H143.847V347.392C144.231 346.992 144.663 346.528 145.143 346C145.623 345.456 146.103 344.888 146.583 344.296C147.079 343.688 147.559 343.064 148.023 342.424C148.487 341.784 148.903 341.144 149.271 340.504C149.639 339.848 149.927 339.216 150.135 338.608C150.359 338 150.471 337.424 150.471 336.88C150.471 336.224 150.279 335.688 149.895 335.272C149.527 334.84 148.935 334.624 148.119 334.624C147.607 334.624 147.079 334.736 146.535 334.96C146.007 335.168 145.559 335.44 145.191 335.776L143.943 333.568C144.567 333.056 145.271 332.648 146.055 332.344C146.855 332.024 147.791 331.864 148.863 331.864C149.551 331.864 150.183 331.96 150.759 332.152C151.335 332.344 151.831 332.624 152.247 332.992C152.663 333.36 152.991 333.824 153.231 334.384C153.471 334.928 153.591 335.568 153.591 336.304Z" fill="white"/>
<path opacity="0.54" d="M143.558 311.344C143.558 311.909 143.451 312.491 143.238 313.088C143.035 313.675 142.763 314.267 142.422 314.864C142.091 315.461 141.718 316.048 141.302 316.624C140.886 317.189 140.47 317.728 140.054 318.24L139.27 318.928V318.992L140.294 318.816H143.782V320H137.414V319.536C137.649 319.291 137.931 318.987 138.262 318.624C138.593 318.261 138.934 317.861 139.286 317.424C139.649 316.976 140.001 316.507 140.342 316.016C140.694 315.515 141.009 315.008 141.286 314.496C141.574 313.984 141.803 313.477 141.974 312.976C142.145 312.475 142.23 312 142.23 311.552C142.23 311.029 142.081 310.597 141.782 310.256C141.483 309.904 141.03 309.728 140.422 309.728C140.017 309.728 139.622 309.813 139.238 309.984C138.854 310.144 138.523 310.331 138.246 310.544L137.718 309.632C138.091 309.312 138.534 309.061 139.046 308.88C139.558 308.699 140.107 308.608 140.694 308.608C141.153 308.608 141.558 308.677 141.91 308.816C142.262 308.944 142.561 309.131 142.806 309.376C143.051 309.621 143.238 309.915 143.366 310.256C143.494 310.587 143.558 310.949 143.558 311.344ZM145.829 314.4C145.829 312.48 146.138 311.035 146.757 310.064C147.386 309.093 148.298 308.608 149.493 308.608C150.783 308.608 151.717 309.088 152.293 310.048C152.879 310.997 153.173 312.448 153.173 314.4C153.173 316.32 152.858 317.765 152.229 318.736C151.61 319.707 150.698 320.192 149.493 320.192C148.223 320.192 147.295 319.685 146.709 318.672C146.122 317.659 145.829 316.235 145.829 314.4ZM147.157 314.4C147.157 315.093 147.199 315.728 147.285 316.304C147.381 316.869 147.525 317.36 147.717 317.776C147.909 318.181 148.149 318.501 148.437 318.736C148.735 318.96 149.087 319.072 149.493 319.072C150.303 319.072 150.895 318.699 151.269 317.952C151.653 317.195 151.845 316.011 151.845 314.4C151.845 313.717 151.802 313.088 151.717 312.512C151.642 311.936 151.509 311.44 151.317 311.024C151.135 310.608 150.895 310.288 150.597 310.064C150.298 309.84 149.93 309.728 149.493 309.728C148.693 309.728 148.101 310.107 147.717 310.864C147.343 311.621 147.157 312.8 147.157 314.4ZM157.603 319.072C157.966 319.072 158.302 319.019 158.611 318.912C158.921 318.805 159.187 318.651 159.411 318.448C159.635 318.235 159.811 317.984 159.939 317.696C160.067 317.408 160.131 317.093 160.131 316.752C160.131 316.005 159.907 315.451 159.459 315.088C159.022 314.725 158.414 314.544 157.635 314.544H156.451V314.08L158.755 310.528L159.491 309.824L158.451 309.984H155.283V308.8H160.995V309.264L158.451 313.088L157.891 313.552V313.584L158.435 313.472C158.862 313.483 159.257 313.563 159.619 313.712C159.982 313.851 160.297 314.059 160.563 314.336C160.83 314.603 161.038 314.928 161.187 315.312C161.337 315.685 161.411 316.112 161.411 316.592C161.411 317.168 161.31 317.68 161.107 318.128C160.905 318.576 160.627 318.955 160.275 319.264C159.934 319.563 159.529 319.792 159.059 319.952C158.59 320.112 158.094 320.192 157.571 320.192C157.091 320.192 156.659 320.155 156.275 320.08C155.891 320.005 155.555 319.909 155.267 319.792L155.603 318.656C155.849 318.773 156.137 318.875 156.467 318.96C156.809 319.035 157.187 319.072 157.603 319.072Z" fill="white"/>
<path d="M270.78 326.552C270.312 328.352 269.376 330.908 268.584 332.492L271.788 333.392C272.58 331.844 273.516 329.648 274.416 327.488L270.78 326.552ZM268.944 343.4C266.28 344.048 263.796 344.66 261.924 345.02C261.96 344.48 261.96 343.976 261.96 343.472V340.664C263.76 341.276 266.064 342.248 267.324 342.932L268.8 340.376C267.468 339.728 265.056 338.828 263.22 338.288L261.96 340.304V337.172H268.944V343.4ZM263.508 334.076H258.252V343.4C258.252 346.028 258.216 349.016 257.064 351.212C257.856 351.644 259.476 352.976 260.088 353.696C261.312 351.68 261.78 348.692 261.888 345.92L262.788 348.512C264.66 347.828 266.748 347.036 268.944 346.244V348.944C268.944 349.304 268.8 349.448 268.404 349.448C268.008 349.484 266.64 349.484 265.452 349.412C265.92 350.42 266.388 351.896 266.532 352.94C268.692 352.94 270.348 352.904 271.464 352.328C272.652 351.752 272.976 350.78 272.976 348.98V334.076H267.396V325.508H263.508V334.076ZM262.536 332.168C262.248 330.62 261.384 328.28 260.304 326.588L257.208 327.56C258.18 329.36 259.008 331.736 259.224 333.32L262.536 332.168ZM252.456 347.612H256.992V343.904H252.456V340.016H257.28V336.236H251.916V332.96H256.488V329.252H251.916V325.616H247.992V329.252H242.772V332.96H247.992V336.236H241.656V340.016H248.568V350.528C247.776 349.592 247.128 348.44 246.552 346.964C246.66 345.452 246.696 343.832 246.732 342.176L243.096 341.96C243.06 348.044 242.772 353.588 240.684 357.008C241.512 357.476 243.06 358.736 243.672 359.312C244.788 357.44 245.472 355.208 245.94 352.58C249.108 357.44 253.932 358.376 260.88 358.376H273.516C273.768 357.116 274.452 355.208 275.1 354.272C272.148 354.38 263.4 354.38 260.916 354.38C257.568 354.38 254.76 354.2 252.456 353.3V347.612ZM288.13 329C291.478 331.268 295.906 334.688 297.85 336.884L301.018 333.536C298.858 331.304 294.286 328.136 291.046 326.084L288.13 329ZM302.746 338.36C304.618 342.572 306.49 348.26 307.03 351.932L311.386 350.132C310.63 346.424 308.758 341.024 306.742 336.74L302.746 338.36ZM280.426 337.892C279.958 342.68 278.914 348.08 277.654 351.896L281.974 353.624C283.198 349.556 284.098 343.328 284.602 338.684L280.426 337.892ZM286.906 335.768V352.472C286.906 357.008 288.202 358.448 292.882 358.448H298.894C303.286 358.448 304.438 356.324 304.942 349.484C303.754 349.196 301.918 348.44 300.91 347.684C300.658 353.3 300.334 354.452 298.534 354.452H293.386C291.658 354.452 291.37 354.164 291.37 352.472V335.768H286.906ZM335.252 349.34V346.1H342.092C340.688 347.36 338.492 348.908 336.764 349.952L335.252 349.34ZM326.9 350.888L328.808 348.764C327.8 348.008 326.072 346.964 324.56 346.1H330.896V349.34L326.9 350.888ZM335.252 341.24H340.004V343.22H335.252V341.24ZM335.252 336.452H340.004V338.288H335.252V336.452ZM344.036 341.564H347.204V337.928H344.036V333.572H335.252V332.06H346.844V328.316H335.108C334.604 327.272 333.956 326.12 333.344 325.148L329.06 326.192C329.42 326.804 329.816 327.56 330.14 328.316H316.532V338.72C316.532 344.048 316.316 351.5 313.364 356.684C314.3 357.08 316.1 358.268 316.856 358.988C320.06 353.408 320.6 344.588 320.6 338.72V332.06H330.896V333.572H322.724V336.452H330.896V338.288H321.284V341.24H330.896V343.22H322.328V346.1H323.12L321.392 347.9C322.904 348.872 324.992 350.24 326.18 351.14C323.696 352.076 321.464 352.904 319.808 353.48L321.392 356.972C324.128 355.748 327.584 354.164 330.896 352.652V354.956C330.896 355.532 330.68 355.748 330.032 355.748C329.42 355.784 327.224 355.784 325.424 355.712C325.964 356.684 326.54 358.16 326.756 359.204C329.744 359.204 331.832 359.168 333.272 358.628C334.712 358.052 335.252 357.152 335.252 355.028V352.724C338.78 354.272 342.74 356.216 344.936 357.512L346.88 354.524C345.332 353.696 342.884 352.544 340.436 351.464C342.056 350.6 343.892 349.484 345.548 348.368L342.704 346.1H344.036V341.564Z" fill="black"/>
<path d="M255.024 306.32V305.152H248.592V302.4H253.92V301.232H248.592V298.624H247.36V301.232H242.192V302.4H247.36V305.152H241.04V306.32H246.688C245.248 308.384 242.832 310.368 240.608 311.36C240.88 311.584 241.264 312.048 241.472 312.336C243.568 311.28 245.808 309.376 247.36 307.248V313.232H248.592V307.184C250.144 309.312 252.416 311.296 254.528 312.336C254.736 312.032 255.12 311.568 255.392 311.344C253.168 310.368 250.736 308.368 249.28 306.32H255.024ZM271.216 300.672V299.744H266.4C266.592 299.424 266.752 299.12 266.896 298.8L265.776 298.544C265.344 299.504 264.576 300.448 263.744 301.088C264.016 301.232 264.48 301.568 264.704 301.76C265.04 301.456 265.408 301.072 265.744 300.672H271.216ZM269.536 302.56C269.312 302.016 268.752 301.248 268.24 300.688L267.344 301.12C267.824 301.712 268.352 302.512 268.56 303.04L269.536 302.56ZM263.856 300.624V299.696H259.744C259.872 299.408 260 299.12 260.112 298.832L258.992 298.544C258.48 299.952 257.616 301.344 256.656 302.272C256.928 302.432 257.408 302.736 257.616 302.928C258.192 302.32 258.768 301.52 259.264 300.624H263.856ZM261.728 302.368C261.616 301.92 261.312 301.2 261.008 300.688L260.08 301.088C260.368 301.632 260.672 302.368 260.768 302.832L261.728 302.368ZM263.232 311.984C262.72 311.6 261.824 311.056 261.008 310.656C261.216 310.4 261.408 310.112 261.552 309.808L260.496 309.568C259.808 310.896 258.304 311.872 256.672 312.464C256.88 312.656 257.264 313.072 257.408 313.296C258.464 312.848 259.52 312.208 260.352 311.392C261.136 311.824 262.016 312.384 262.512 312.784L263.232 311.984ZM261.2 305.312H266.656V304.448H261.2V305.312ZM265.536 306.912H268.512V308.576H265.536V306.912ZM264.544 309.408H269.568V306.064H264.544V309.408ZM259.744 306.912H262.64V308.576H259.744V306.912ZM258.736 309.408H263.696V306.064H258.736V309.408ZM266.56 309.584C266.048 310.976 264.736 311.936 263.152 312.512C263.376 312.704 263.776 313.088 263.904 313.296C264.928 312.864 265.872 312.256 266.592 311.456C267.92 311.952 269.44 312.656 270.288 313.152L271.04 312.304C270.112 311.808 268.544 311.12 267.2 310.656C267.36 310.384 267.504 310.08 267.616 309.776L266.56 309.584ZM264.016 301.52C262.432 303.024 259.424 304.192 256.768 304.8C257.024 305.056 257.312 305.472 257.456 305.744C259.712 305.152 262.112 304.16 263.888 302.896C265.552 304.064 268.32 305.12 270.576 305.616C270.752 305.328 271.056 304.88 271.312 304.64C269.008 304.24 266.08 303.328 264.576 302.368C264.72 302.256 264.848 302.144 264.976 302.016L264.016 301.52ZM277.856 307.984H281.04V306.928H277.856V305.216H276.72V306.928H273.6V307.984H276.72V310.672C275.328 310.912 274.032 311.152 273.056 311.312L273.312 312.416C275.408 312.016 278.432 311.44 281.264 310.896L281.184 309.856C280.08 310.064 278.944 310.272 277.856 310.48V307.984ZM273.184 300.72H275.712C275.2 301.856 274.56 302.848 274.32 303.168C274.048 303.552 273.808 303.824 273.552 303.872C273.696 304.176 273.888 304.736 273.952 304.992C274.336 304.816 274.912 304.752 279.888 304.272C280.128 304.64 280.32 304.992 280.448 305.264L281.36 304.672C280.896 303.76 279.84 302.32 278.944 301.248L278.096 301.76C278.48 302.24 278.896 302.784 279.28 303.344L275.2 303.696C275.84 302.848 276.496 301.776 277.04 300.72H281.36V299.664H273.184V300.72ZM283.36 300H282.24V309.616H283.36V300ZM285.376 298.88V311.376C285.376 311.648 285.312 311.712 285.04 311.728C284.768 311.744 283.888 311.744 282.96 311.712C283.136 312.032 283.344 312.576 283.392 312.88C284.544 312.88 285.392 312.848 285.888 312.656C286.368 312.48 286.544 312.112 286.544 311.36V298.88H285.376Z" fill="#757575"/>
<rect x="80" y="400" width="480" height="120" rx="8" fill="#EEEEEE"/>
<rect x="80" y="400" width="140" height="120" fill="#F49E0B"/>
<path d="M147.975 476.696C148.967 476.696 149.719 476.432 150.231 475.904C150.759 475.376 151.023 474.736 151.023 473.984C151.023 473.072 150.751 472.4 150.207 471.968C149.663 471.536 148.807 471.32 147.639 471.32H145.911V469.664L148.815 465.704L150.183 464.624L148.287 464.84H144.255V462.2H153.423V463.904L150.039 468.44L148.983 469.088V469.208L149.991 469.064C150.551 469.112 151.079 469.24 151.575 469.448C152.087 469.656 152.527 469.96 152.895 470.36C153.279 470.744 153.583 471.224 153.807 471.8C154.031 472.376 154.143 473.04 154.143 473.792C154.143 474.736 153.983 475.552 153.663 476.24C153.359 476.928 152.927 477.504 152.367 477.968C151.823 478.432 151.183 478.776 150.447 479C149.711 479.224 148.919 479.336 148.071 479.336C147.367 479.336 146.639 479.272 145.887 479.144C145.135 479.016 144.527 478.832 144.063 478.592L144.903 476C145.319 476.208 145.775 476.376 146.271 476.504C146.783 476.632 147.351 476.696 147.975 476.696Z" fill="white"/>
<path opacity="0.54" d="M143.558 441.344C143.558 441.909 143.451 442.491 143.238 443.088C143.035 443.675 142.763 444.267 142.422 444.864C142.091 445.461 141.718 446.048 141.302 446.624C140.886 447.189 140.47 447.728 140.054 448.24L139.27 448.928V448.992L140.294 448.816H143.782V450H137.414V449.536C137.649 449.291 137.931 448.987 138.262 448.624C138.593 448.261 138.934 447.861 139.286 447.424C139.649 446.976 140.001 446.507 140.342 446.016C140.694 445.515 141.009 445.008 141.286 444.496C141.574 443.984 141.803 443.477 141.974 442.976C142.145 442.475 142.23 442 142.23 441.552C142.23 441.029 142.081 440.597 141.782 440.256C141.483 439.904 141.03 439.728 140.422 439.728C140.017 439.728 139.622 439.813 139.238 439.984C138.854 440.144 138.523 440.331 138.246 440.544L137.718 439.632C138.091 439.312 138.534 439.061 139.046 438.88C139.558 438.699 140.107 438.608 140.694 438.608C141.153 438.608 141.558 438.677 141.91 438.816C142.262 438.944 142.561 439.131 142.806 439.376C143.051 439.621 143.238 439.915 143.366 440.256C143.494 440.587 143.558 440.949 143.558 441.344ZM145.829 444.4C145.829 442.48 146.138 441.035 146.757 440.064C147.386 439.093 148.298 438.608 149.493 438.608C150.783 438.608 151.717 439.088 152.293 440.048C152.879 440.997 153.173 442.448 153.173 444.4C153.173 446.32 152.858 447.765 152.229 448.736C151.61 449.707 150.698 450.192 149.493 450.192C148.223 450.192 147.295 449.685 146.709 448.672C146.122 447.659 145.829 446.235 145.829 444.4ZM147.157 444.4C147.157 445.093 147.199 445.728 147.285 446.304C147.381 446.869 147.525 447.36 147.717 447.776C147.909 448.181 148.149 448.501 148.437 448.736C148.735 448.96 149.087 449.072 149.493 449.072C150.303 449.072 150.895 448.699 151.269 447.952C151.653 447.195 151.845 446.011 151.845 444.4C151.845 443.717 151.802 443.088 151.717 442.512C151.642 441.936 151.509 441.44 151.317 441.024C151.135 440.608 150.895 440.288 150.597 440.064C150.298 439.84 149.93 439.728 149.493 439.728C148.693 439.728 148.101 440.107 147.717 440.864C147.343 441.621 147.157 442.8 147.157 444.4ZM157.603 449.072C157.966 449.072 158.302 449.019 158.611 448.912C158.921 448.805 159.187 448.651 159.411 448.448C159.635 448.235 159.811 447.984 159.939 447.696C160.067 447.408 160.131 447.093 160.131 446.752C160.131 446.005 159.907 445.451 159.459 445.088C159.022 444.725 158.414 444.544 157.635 444.544H156.451V444.08L158.755 440.528L159.491 439.824L158.451 439.984H155.283V438.8H160.995V439.264L158.451 443.088L157.891 443.552V443.584L158.435 443.472C158.862 443.483 159.257 443.563 159.619 443.712C159.982 443.851 160.297 444.059 160.563 444.336C160.83 444.603 161.038 444.928 161.187 445.312C161.337 445.685 161.411 446.112 161.411 446.592C161.411 447.168 161.31 447.68 161.107 448.128C160.905 448.576 160.627 448.955 160.275 449.264C159.934 449.563 159.529 449.792 159.059 449.952C158.59 450.112 158.094 450.192 157.571 450.192C157.091 450.192 156.659 450.155 156.275 450.08C155.891 450.005 155.555 449.909 155.267 449.792L155.603 448.656C155.849 448.773 156.137 448.875 156.467 448.96C156.809 449.035 157.187 449.072 157.603 449.072Z" fill="white"/>
<path d="M250.26 466.308H253.824V462.348H250.26V455.472H246.228V462.348H241.692V466.308H246.048C244.968 470.196 242.988 474.552 240.828 476.964C241.44 478.116 242.376 480.024 242.736 481.176C244.032 479.52 245.22 477.144 246.228 474.408V489.096H250.26V473.148C251.088 474.48 251.88 475.848 252.348 476.856L254.868 473.256C254.22 472.392 251.592 468.972 250.26 467.46V466.308ZM262.068 468.54V475.416H259.152V468.54H262.068ZM265.74 479.016V464.94H255.66V481.104H259.152V479.016H265.74ZM274.704 457.164H254.112V461.124H268.044V484.092C268.044 484.74 267.792 484.92 267.144 484.956C266.46 484.992 264.156 484.992 261.996 484.884C262.608 486.108 263.256 487.944 263.4 489.168C266.568 489.168 268.836 489.06 270.312 488.34C271.788 487.692 272.256 486.54 272.256 484.164V461.124H274.704V457.164ZM282.694 478.476V471.96H285.898V478.476H282.694ZM285.898 461.952V468.216H282.694V461.952H285.898ZM297.274 461.232C297.958 459.684 298.57 458.1 299.074 456.516L294.898 455.508C293.782 459.18 292.018 462.852 289.858 465.624V458.136H278.734V485.028H282.694V482.292H289.858V468.612C290.578 469.224 291.262 469.836 291.694 470.268C292.09 469.836 292.45 469.368 292.846 468.864V472.32H302.638V468.648H293.026C293.818 467.568 294.61 466.344 295.366 465.012H306.166C305.806 477.972 305.338 483.264 304.33 484.38C303.898 484.884 303.502 485.028 302.854 485.028C301.954 485.028 300.046 485.028 297.922 484.848C298.678 486.036 299.254 487.836 299.326 489.06C301.342 489.132 303.43 489.168 304.762 488.916C306.202 488.736 307.102 488.304 308.11 486.936C309.514 485.1 309.982 479.34 310.378 463.248C310.414 462.672 310.414 461.232 310.414 461.232H297.274ZM303.43 476.568H291.874V480.348H303.43V476.568ZM345.872 461.232H326.972V465.804H345.872V461.232ZM322.112 455.652C320.132 460.98 316.748 466.236 313.184 469.512C313.94 470.628 315.236 472.968 315.704 474.048C316.676 473.076 317.612 471.996 318.548 470.772V489.06H322.868V464.328C324.236 461.952 325.424 459.468 326.396 457.02L322.112 455.652ZM324.992 482.4V486.972H347.276V482.4H324.992Z" fill="black"/>
<path d="M255.024 436.32V435.152H248.592V432.4H253.92V431.232H248.592V428.624H247.36V431.232H242.192V432.4H247.36V435.152H241.04V436.32H246.688C245.248 438.384 242.832 440.368 240.608 441.36C240.88 441.584 241.264 442.048 241.472 442.336C243.568 441.28 245.808 439.376 247.36 437.248V443.232H248.592V437.184C250.144 439.312 252.416 441.296 254.528 442.336C254.736 442.032 255.12 441.568 255.392 441.344C253.168 440.368 250.736 438.368 249.28 436.32H255.024ZM271.216 430.672V429.744H266.4C266.592 429.424 266.752 429.12 266.896 428.8L265.776 428.544C265.344 429.504 264.576 430.448 263.744 431.088C264.016 431.232 264.48 431.568 264.704 431.76C265.04 431.456 265.408 431.072 265.744 430.672H271.216ZM269.536 432.56C269.312 432.016 268.752 431.248 268.24 430.688L267.344 431.12C267.824 431.712 268.352 432.512 268.56 433.04L269.536 432.56ZM263.856 430.624V429.696H259.744C259.872 429.408 260 429.12 260.112 428.832L258.992 428.544C258.48 429.952 257.616 431.344 256.656 432.272C256.928 432.432 257.408 432.736 257.616 432.928C258.192 432.32 258.768 431.52 259.264 430.624H263.856ZM261.728 432.368C261.616 431.92 261.312 431.2 261.008 430.688L260.08 431.088C260.368 431.632 260.672 432.368 260.768 432.832L261.728 432.368ZM263.232 441.984C262.72 441.6 261.824 441.056 261.008 440.656C261.216 440.4 261.408 440.112 261.552 439.808L260.496 439.568C259.808 440.896 258.304 441.872 256.672 442.464C256.88 442.656 257.264 443.072 257.408 443.296C258.464 442.848 259.52 442.208 260.352 441.392C261.136 441.824 262.016 442.384 262.512 442.784L263.232 441.984ZM261.2 435.312H266.656V434.448H261.2V435.312ZM265.536 436.912H268.512V438.576H265.536V436.912ZM264.544 439.408H269.568V436.064H264.544V439.408ZM259.744 436.912H262.64V438.576H259.744V436.912ZM258.736 439.408H263.696V436.064H258.736V439.408ZM266.56 439.584C266.048 440.976 264.736 441.936 263.152 442.512C263.376 442.704 263.776 443.088 263.904 443.296C264.928 442.864 265.872 442.256 266.592 441.456C267.92 441.952 269.44 442.656 270.288 443.152L271.04 442.304C270.112 441.808 268.544 441.12 267.2 440.656C267.36 440.384 267.504 440.08 267.616 439.776L266.56 439.584ZM264.016 431.52C262.432 433.024 259.424 434.192 256.768 434.8C257.024 435.056 257.312 435.472 257.456 435.744C259.712 435.152 262.112 434.16 263.888 432.896C265.552 434.064 268.32 435.12 270.576 435.616C270.752 435.328 271.056 434.88 271.312 434.64C269.008 434.24 266.08 433.328 264.576 432.368C264.72 432.256 264.848 432.144 264.976 432.016L264.016 431.52ZM277.856 437.984H281.04V436.928H277.856V435.216H276.72V436.928H273.6V437.984H276.72V440.672C275.328 440.912 274.032 441.152 273.056 441.312L273.312 442.416C275.408 442.016 278.432 441.44 281.264 440.896L281.184 439.856C280.08 440.064 278.944 440.272 277.856 440.48V437.984ZM273.184 430.72H275.712C275.2 431.856 274.56 432.848 274.32 433.168C274.048 433.552 273.808 433.824 273.552 433.872C273.696 434.176 273.888 434.736 273.952 434.992C274.336 434.816 274.912 434.752 279.888 434.272C280.128 434.64 280.32 434.992 280.448 435.264L281.36 434.672C280.896 433.76 279.84 432.32 278.944 431.248L278.096 431.76C278.48 432.24 278.896 432.784 279.28 433.344L275.2 433.696C275.84 432.848 276.496 431.776 277.04 430.72H281.36V429.664H273.184V430.72ZM283.36 430H282.24V439.616H283.36V430ZM285.376 428.88V441.376C285.376 441.648 285.312 441.712 285.04 441.728C284.768 441.744 283.888 441.744 282.96 441.712C283.136 442.032 283.344 442.576 283.392 442.88C284.544 442.88 285.392 442.848 285.888 442.656C286.368 442.48 286.544 442.112 286.544 441.36V428.88H285.376Z" fill="#757575"/>
<rect x="80" y="530" width="480" height="120" rx="8" fill="#EEEEEE"/>
<rect x="80" y="530" width="140" height="120" fill="#12B981"/>
<path d="M155.463 604.32H152.823V609H149.919V604.32H142.647V602.544L150.255 592.08H152.823V601.824H155.463V604.32ZM149.919 598.152L150.135 596.136H150.039L149.223 597.864L146.727 601.104L145.527 602.016L147.063 601.824H149.919V598.152Z" fill="white"/>
<path opacity="0.54" d="M143.558 571.344C143.558 571.909 143.451 572.491 143.238 573.088C143.035 573.675 142.763 574.267 142.422 574.864C142.091 575.461 141.718 576.048 141.302 576.624C140.886 577.189 140.47 577.728 140.054 578.24L139.27 578.928V578.992L140.294 578.816H143.782V580H137.414V579.536C137.649 579.291 137.931 578.987 138.262 578.624C138.593 578.261 138.934 577.861 139.286 577.424C139.649 576.976 140.001 576.507 140.342 576.016C140.694 575.515 141.009 575.008 141.286 574.496C141.574 573.984 141.803 573.477 141.974 572.976C142.145 572.475 142.23 572 142.23 571.552C142.23 571.029 142.081 570.597 141.782 570.256C141.483 569.904 141.03 569.728 140.422 569.728C140.017 569.728 139.622 569.813 139.238 569.984C138.854 570.144 138.523 570.331 138.246 570.544L137.718 569.632C138.091 569.312 138.534 569.061 139.046 568.88C139.558 568.699 140.107 568.608 140.694 568.608C141.153 568.608 141.558 568.677 141.91 568.816C142.262 568.944 142.561 569.131 142.806 569.376C143.051 569.621 143.238 569.915 143.366 570.256C143.494 570.587 143.558 570.949 143.558 571.344ZM145.829 574.4C145.829 572.48 146.138 571.035 146.757 570.064C147.386 569.093 148.298 568.608 149.493 568.608C150.783 568.608 151.717 569.088 152.293 570.048C152.879 570.997 153.173 572.448 153.173 574.4C153.173 576.32 152.858 577.765 152.229 578.736C151.61 579.707 150.698 580.192 149.493 580.192C148.223 580.192 147.295 579.685 146.709 578.672C146.122 577.659 145.829 576.235 145.829 574.4ZM147.157 574.4C147.157 575.093 147.199 575.728 147.285 576.304C147.381 576.869 147.525 577.36 147.717 577.776C147.909 578.181 148.149 578.501 148.437 578.736C148.735 578.96 149.087 579.072 149.493 579.072C150.303 579.072 150.895 578.699 151.269 577.952C151.653 577.195 151.845 576.011 151.845 574.4C151.845 573.717 151.802 573.088 151.717 572.512C151.642 571.936 151.509 571.44 151.317 571.024C151.135 570.608 150.895 570.288 150.597 570.064C150.298 569.84 149.93 569.728 149.493 569.728C148.693 569.728 148.101 570.107 147.717 570.864C147.343 571.621 147.157 572.8 147.157 574.4ZM157.603 579.072C157.966 579.072 158.302 579.019 158.611 578.912C158.921 578.805 159.187 578.651 159.411 578.448C159.635 578.235 159.811 577.984 159.939 577.696C160.067 577.408 160.131 577.093 160.131 576.752C160.131 576.005 159.907 575.451 159.459 575.088C159.022 574.725 158.414 574.544 157.635 574.544H156.451V574.08L158.755 570.528L159.491 569.824L158.451 569.984H155.283V568.8H160.995V569.264L158.451 573.088L157.891 573.552V573.584L158.435 573.472C158.862 573.483 159.257 573.563 159.619 573.712C159.982 573.851 160.297 574.059 160.563 574.336C160.83 574.603 161.038 574.928 161.187 575.312C161.337 575.685 161.411 576.112 161.411 576.592C161.411 577.168 161.31 577.68 161.107 578.128C160.905 578.576 160.627 578.955 160.275 579.264C159.934 579.563 159.529 579.792 159.059 579.952C158.59 580.112 158.094 580.192 157.571 580.192C157.091 580.192 156.659 580.155 156.275 580.08C155.891 580.005 155.555 579.909 155.267 579.792L155.603 578.656C155.849 578.773 156.137 578.875 156.467 578.96C156.809 579.035 157.187 579.072 157.603 579.072Z" fill="white"/>
<path d="M267.036 614.38V616.108H254.832V614.38H267.036ZM250.944 619.06H254.832V618.376H267.036V618.988H271.14V612.112H250.944V619.06ZM251.376 610.924H270.888V608.728H251.376V610.924ZM270.888 605.38H251.376V607.576H270.888V605.38ZM249.432 595.192H254.076C253.608 596.632 252.492 597.46 249.432 597.928V595.192ZM258.9 590.44C258.576 590.98 258.216 591.52 257.892 591.988H251.016C251.376 591.484 251.736 590.944 252.096 590.44H258.9ZM274.128 595.192V591.988H262.32C263.004 591.052 263.616 590.08 264.12 589.144L261.636 587.38L260.844 587.596H253.788C254.004 587.164 254.22 586.732 254.436 586.3L250.044 585.544C248.424 589.036 245.4 593.176 240.792 596.164C241.728 596.776 243.06 598.216 243.672 599.224C244.284 598.792 244.86 598.324 245.436 597.856V601.276C245.436 606.028 245.04 612.472 241.152 616.9C242.124 617.332 243.852 618.484 244.608 619.132C247.992 615.136 249.072 609.232 249.36 604.228H273.696V601.708H262.068C261.78 600.844 261.24 599.62 260.808 598.648L257.496 599.656C257.784 600.268 258.072 600.988 258.288 601.708H249.432V601.312V599.548C249.756 600.016 250.008 600.52 250.116 600.916C255.732 600.088 257.46 598.324 258.072 595.192H261.672V596.02C261.672 598.72 262.32 600.016 265.596 600.016H270.204C271.248 600.016 272.58 600.016 273.192 599.8C273.048 598.864 273.012 597.892 272.904 596.884C272.292 597.064 270.816 597.136 269.988 597.136H266.424C265.596 597.136 265.488 596.812 265.488 596.056V595.192H274.128ZM280.534 597.856H293.35V593.932H283.054V591.016H305.302V593.248H302.746V596.704H294.574V600.556H302.746V609.016C302.746 609.448 302.602 609.592 302.134 609.592C301.666 609.592 300.154 609.592 298.678 609.556C299.218 610.6 299.83 612.184 299.974 613.228C302.278 613.264 303.934 613.192 305.158 612.58C306.454 611.968 306.778 610.96 306.778 609.088V600.556H310.486V596.704H306.778V594.076H309.73V587.056H278.842V594.076H280.534V597.856ZM295.186 602.896C296.374 604.588 297.526 606.964 297.922 608.548L301.414 606.964C300.946 605.416 299.758 603.184 298.498 601.528L295.186 602.896ZM295.402 614.848C292.45 614.848 291.946 614.596 291.946 613.228V604.948H294.718V600.988H277.978V604.948H281.362V606.352C281.362 609.304 280.858 613.192 277.114 616.072C277.906 616.612 279.526 618.232 280.03 619.024C284.35 615.604 285.322 610.384 285.322 606.46V604.948H287.95V613.264C287.95 617.404 289.57 618.556 295.222 618.556H304.618C309.478 618.556 310.738 617.152 311.386 611.644C310.234 611.428 308.542 610.816 307.606 610.204C307.282 614.2 306.886 614.848 304.402 614.848H295.402ZM319.088 592.816H341.696V596.38H346.088V588.964H333.848C333.416 587.848 332.696 586.336 332.156 585.184L327.656 586.408C328.016 587.164 328.376 588.1 328.664 588.964H314.876V596.38H319.088V592.816ZM346.412 602.176V598.144H329.456C329.96 596.848 330.392 595.552 330.788 594.184L326.252 593.212C325.784 594.904 325.244 596.56 324.668 598.144H314.624V602.176H322.94C320.6 607.108 317.432 611.248 313.688 614.164C314.732 614.884 316.604 616.576 317.288 617.476C321.536 613.768 325.136 608.404 327.872 602.176H346.412ZM346.52 616.72C344.828 614.056 341.228 609.628 338.816 606.496L335.216 608.476C336.296 609.952 337.556 611.644 338.744 613.336L329.132 613.912C331.4 611.104 333.74 607.648 335.72 604.12L331.22 602.752C329.096 607.108 326.108 611.32 324.992 612.472C324.056 613.696 323.3 614.38 322.436 614.596C322.904 615.712 323.588 617.728 323.84 618.592C325.208 618.052 327.188 617.908 341.156 616.828C341.732 617.692 342.2 618.412 342.596 619.096L346.52 616.72Z" fill="black"/>
<path d="M245.664 571.6C243.936 571.6 243.584 571.376 243.584 570.368V566.144H251.936V566.928H253.152V559.616H241.536V560.784H251.936V564.976H243.584V562.352H242.384V570.352C242.384 572.32 243.184 572.768 245.744 572.768H251.728C254.336 572.768 254.864 571.904 255.168 568.976C254.816 568.912 254.288 568.72 253.968 568.496C253.744 571.072 253.488 571.6 251.744 571.6H245.664ZM271.216 560.672V559.744H266.4C266.592 559.424 266.752 559.12 266.896 558.8L265.776 558.544C265.344 559.504 264.576 560.448 263.744 561.088C264.016 561.232 264.48 561.568 264.704 561.76C265.04 561.456 265.408 561.072 265.744 560.672H271.216ZM269.536 562.56C269.312 562.016 268.752 561.248 268.24 560.688L267.344 561.12C267.824 561.712 268.352 562.512 268.56 563.04L269.536 562.56ZM263.856 560.624V559.696H259.744C259.872 559.408 260 559.12 260.112 558.832L258.992 558.544C258.48 559.952 257.616 561.344 256.656 562.272C256.928 562.432 257.408 562.736 257.616 562.928C258.192 562.32 258.768 561.52 259.264 560.624H263.856ZM261.728 562.368C261.616 561.92 261.312 561.2 261.008 560.688L260.08 561.088C260.368 561.632 260.672 562.368 260.768 562.832L261.728 562.368ZM263.232 571.984C262.72 571.6 261.824 571.056 261.008 570.656C261.216 570.4 261.408 570.112 261.552 569.808L260.496 569.568C259.808 570.896 258.304 571.872 256.672 572.464C256.88 572.656 257.264 573.072 257.408 573.296C258.464 572.848 259.52 572.208 260.352 571.392C261.136 571.824 262.016 572.384 262.512 572.784L263.232 571.984ZM261.2 565.312H266.656V564.448H261.2V565.312ZM265.536 566.912H268.512V568.576H265.536V566.912ZM264.544 569.408H269.568V566.064H264.544V569.408ZM259.744 566.912H262.64V568.576H259.744V566.912ZM258.736 569.408H263.696V566.064H258.736V569.408ZM266.56 569.584C266.048 570.976 264.736 571.936 263.152 572.512C263.376 572.704 263.776 573.088 263.904 573.296C264.928 572.864 265.872 572.256 266.592 571.456C267.92 571.952 269.44 572.656 270.288 573.152L271.04 572.304C270.112 571.808 268.544 571.12 267.2 570.656C267.36 570.384 267.504 570.08 267.616 569.776L266.56 569.584ZM264.016 561.52C262.432 563.024 259.424 564.192 256.768 564.8C257.024 565.056 257.312 565.472 257.456 565.744C259.712 565.152 262.112 564.16 263.888 562.896C265.552 564.064 268.32 565.12 270.576 565.616C270.752 565.328 271.056 564.88 271.312 564.64C269.008 564.24 266.08 563.328 264.576 562.368C264.72 562.256 264.848 562.144 264.976 562.016L264.016 561.52ZM277.856 567.984H281.04V566.928H277.856V565.216H276.72V566.928H273.6V567.984H276.72V570.672C275.328 570.912 274.032 571.152 273.056 571.312L273.312 572.416C275.408 572.016 278.432 571.44 281.264 570.896L281.184 569.856C280.08 570.064 278.944 570.272 277.856 570.48V567.984ZM273.184 560.72H275.712C275.2 561.856 274.56 562.848 274.32 563.168C274.048 563.552 273.808 563.824 273.552 563.872C273.696 564.176 273.888 564.736 273.952 564.992C274.336 564.816 274.912 564.752 279.888 564.272C280.128 564.64 280.32 564.992 280.448 565.264L281.36 564.672C280.896 563.76 279.84 562.32 278.944 561.248L278.096 561.76C278.48 562.24 278.896 562.784 279.28 563.344L275.2 563.696C275.84 562.848 276.496 561.776 277.04 560.72H281.36V559.664H273.184V560.72ZM283.36 560H282.24V569.616H283.36V560ZM285.376 558.88V571.376C285.376 571.648 285.312 571.712 285.04 571.728C284.768 571.744 283.888 571.744 282.96 571.712C283.136 572.032 283.344 572.576 283.392 572.88C284.544 572.88 285.392 572.848 285.888 572.656C286.368 572.48 286.544 572.112 286.544 571.36V558.88H285.376Z" fill="#757575"/>
<rect x="80" y="660" width="480" height="120" rx="8" fill="#EEEEEE"/>
<rect x="80" y="660" width="140" height="120" fill="#EE4444"/>
<path d="M147.471 736.576C148.527 736.576 149.335 736.32 149.895 735.808C150.455 735.296 150.735 734.592 150.735 733.696C150.735 732.736 150.407 732.032 149.751 731.584C149.095 731.136 148.159 730.912 146.943 730.912L145.047 730.984V722.2H153.303V725.128H147.735V728.368L148.719 728.272C149.503 728.304 150.207 728.448 150.831 728.704C151.471 728.96 152.015 729.32 152.463 729.784C152.911 730.232 153.255 730.784 153.495 731.44C153.735 732.08 153.855 732.8 153.855 733.6C153.855 734.544 153.695 735.376 153.375 736.096C153.055 736.816 152.607 737.416 152.031 737.896C151.471 738.376 150.807 738.736 150.039 738.976C149.271 739.216 148.431 739.336 147.519 739.336C146.799 739.336 146.111 739.272 145.455 739.144C144.815 739.032 144.271 738.872 143.823 738.664L144.663 736.072C145.031 736.232 145.431 736.36 145.863 736.456C146.311 736.536 146.847 736.576 147.471 736.576Z" fill="white"/>
<path opacity="0.54" d="M143.558 701.344C143.558 701.909 143.451 702.491 143.238 703.088C143.035 703.675 142.763 704.267 142.422 704.864C142.091 705.461 141.718 706.048 141.302 706.624C140.886 707.189 140.47 707.728 140.054 708.24L139.27 708.928V708.992L140.294 708.816H143.782V710H137.414V709.536C137.649 709.291 137.931 708.987 138.262 708.624C138.593 708.261 138.934 707.861 139.286 707.424C139.649 706.976 140.001 706.507 140.342 706.016C140.694 705.515 141.009 705.008 141.286 704.496C141.574 703.984 141.803 703.477 141.974 702.976C142.145 702.475 142.23 702 142.23 701.552C142.23 701.029 142.081 700.597 141.782 700.256C141.483 699.904 141.03 699.728 140.422 699.728C140.017 699.728 139.622 699.813 139.238 699.984C138.854 700.144 138.523 700.331 138.246 700.544L137.718 699.632C138.091 699.312 138.534 699.061 139.046 698.88C139.558 698.699 140.107 698.608 140.694 698.608C141.153 698.608 141.558 698.677 141.91 698.816C142.262 698.944 142.561 699.131 142.806 699.376C143.051 699.621 143.238 699.915 143.366 700.256C143.494 700.587 143.558 700.949 143.558 701.344ZM145.829 704.4C145.829 702.48 146.138 701.035 146.757 700.064C147.386 699.093 148.298 698.608 149.493 698.608C150.783 698.608 151.717 699.088 152.293 700.048C152.879 700.997 153.173 702.448 153.173 704.4C153.173 706.32 152.858 707.765 152.229 708.736C151.61 709.707 150.698 710.192 149.493 710.192C148.223 710.192 147.295 709.685 146.709 708.672C146.122 707.659 145.829 706.235 145.829 704.4ZM147.157 704.4C147.157 705.093 147.199 705.728 147.285 706.304C147.381 706.869 147.525 707.36 147.717 707.776C147.909 708.181 148.149 708.501 148.437 708.736C148.735 708.96 149.087 709.072 149.493 709.072C150.303 709.072 150.895 708.699 151.269 707.952C151.653 707.195 151.845 706.011 151.845 704.4C151.845 703.717 151.802 703.088 151.717 702.512C151.642 701.936 151.509 701.44 151.317 701.024C151.135 700.608 150.895 700.288 150.597 700.064C150.298 699.84 149.93 699.728 149.493 699.728C148.693 699.728 148.101 700.107 147.717 700.864C147.343 701.621 147.157 702.8 147.157 704.4ZM157.603 709.072C157.966 709.072 158.302 709.019 158.611 708.912C158.921 708.805 159.187 708.651 159.411 708.448C159.635 708.235 159.811 707.984 159.939 707.696C160.067 707.408 160.131 707.093 160.131 706.752C160.131 706.005 159.907 705.451 159.459 705.088C159.022 704.725 158.414 704.544 157.635 704.544H156.451V704.08L158.755 700.528L159.491 699.824L158.451 699.984H155.283V698.8H160.995V699.264L158.451 703.088L157.891 703.552V703.584L158.435 703.472C158.862 703.483 159.257 703.563 159.619 703.712C159.982 703.851 160.297 704.059 160.563 704.336C160.83 704.603 161.038 704.928 161.187 705.312C161.337 705.685 161.411 706.112 161.411 706.592C161.411 707.168 161.31 707.68 161.107 708.128C160.905 708.576 160.627 708.955 160.275 709.264C159.934 709.563 159.529 709.792 159.059 709.952C158.59 710.112 158.094 710.192 157.571 710.192C157.091 710.192 156.659 710.155 156.275 710.08C155.891 710.005 155.555 709.909 155.267 709.792L155.603 708.656C155.849 708.773 156.137 708.875 156.467 708.96C156.809 709.035 157.187 709.072 157.603 709.072Z" fill="white"/>
<path d="M250.872 719.576C249.576 718.568 246.984 716.948 245.256 715.868L242.628 718.82C244.356 720.008 246.912 721.772 248.1 722.852L250.872 719.576ZM249.576 728.936C248.172 727.928 245.472 726.416 243.636 725.408L241.08 728.396C242.952 729.548 245.616 731.24 246.912 732.284L249.576 728.936ZM245.544 748.844C247.308 745.388 249.18 741.284 250.728 737.54L247.344 734.984C245.58 739.124 243.312 743.552 241.656 746.288L245.544 748.844ZM264.12 744.848V742.652H268.44V744.848H264.12ZM256.416 742.652H260.376V744.848H256.416V742.652ZM260.376 739.7H256.416V737.648H260.376V739.7ZM268.44 739.7H264.12V737.648H268.44V739.7ZM260.196 733.724H264.192V730.16C266.136 731.456 268.188 732.968 269.916 734.372H255.408C257.208 733.04 258.828 731.492 260.196 729.872V733.724ZM260.196 725.336H256.812L258.72 724.58C258.288 723.536 257.46 721.916 256.74 720.62C257.892 720.584 259.044 720.512 260.196 720.404V725.336ZM275.244 733.868C273.696 732.392 270.924 730.412 268.332 728.72H274.308V725.336H269.736C270.456 724.004 271.212 722.528 271.968 721.088L268.044 719.972C267.54 721.556 266.676 723.644 265.812 725.336H264.192V720.044C267.468 719.72 270.6 719.288 273.264 718.748L270.816 715.544C265.884 716.552 257.82 717.272 250.8 717.56C251.196 718.424 251.664 719.864 251.772 720.836C253.248 720.8 254.724 720.728 256.272 720.656L253.248 721.772C253.788 722.852 254.436 724.256 254.832 725.336H250.26V728.72H256.632C254.472 730.808 251.448 732.716 248.676 733.796C249.54 734.516 250.764 735.992 251.34 736.928C251.736 736.712 252.168 736.496 252.564 736.28V749.06H256.416V748.124H268.44V749.024H272.472V736.532L275.244 733.868ZM289.102 722.816C289.102 725.732 288.346 729.728 281.794 732.392C282.766 733.148 284.098 734.66 284.674 735.632C292.27 732.248 293.242 726.848 293.242 722.996V722.384H296.914V734.588H301.018V722.384H310.306V718.784H297.202C296.698 717.704 295.906 716.336 295.258 715.292L291.118 716.264C291.478 716.984 291.982 717.92 292.342 718.784H278.194V722.384H289.102V722.816ZM310.018 729.944C309.046 728.072 306.85 725.3 305.014 723.32L301.558 724.832C303.394 726.92 305.482 729.836 306.346 731.708L310.018 729.944ZM282.766 723.104C281.614 725.048 279.634 727.064 277.618 728.36C278.518 728.936 280.066 730.088 280.714 730.772C282.73 729.224 285.034 726.632 286.474 724.184L282.766 723.104ZM310.45 740.348V736.604H295.87C296.05 735.668 296.158 734.696 296.266 733.688H291.874C291.766 734.732 291.658 735.704 291.478 736.604H278.086V740.348H290.11C288.454 743.012 285.034 744.704 277.618 745.676C278.374 746.504 279.346 748.124 279.598 749.168C289.21 747.692 293.134 744.812 294.862 740.348H296.554L294.574 743.084C298.966 744.848 305.41 747.548 308.506 749.168L310.81 745.64C307.714 744.2 301.738 741.896 297.526 740.348H310.45ZM322.796 721.016V727.748H326.216V723.86H342.56V727.748H346.16V721.016H335.576V719.72H343.928V717.056H335.576V715.508H331.616V721.016H322.796ZM327.548 727.82C326.18 728.972 324.02 730.088 321.968 730.916C322.58 731.312 323.588 732.356 324.02 732.86C326.036 731.852 328.52 730.304 330.104 728.756L327.548 727.82ZM322.832 719.936C321.752 718.712 319.52 717.128 317.684 716.12L315.02 718.928C316.82 720.044 319.016 721.808 319.988 723.032L322.832 719.936ZM321.428 729.26C320.348 728.036 318.08 726.488 316.28 725.588L313.688 728.468C315.452 729.548 317.684 731.168 318.656 732.392L321.428 729.26ZM318.08 748.736C319.448 745.388 320.852 741.428 321.968 737.756L318.476 735.56C317.216 739.52 315.452 743.876 314.156 746.576L318.08 748.736ZM330.536 734.264C331.868 733.364 333.092 732.356 334.172 731.276C335.504 732.464 336.8 733.436 338.096 734.264H330.536ZM329.24 745.316V743.948H339.212V745.316H329.24ZM329.24 740.456H339.212V741.86H329.24V740.456ZM339.212 738.368H329.24V736.928H339.212V738.368ZM334.64 727.46H339.752L337.808 729.26C339.896 730.124 342.56 731.672 343.928 732.824L345.98 730.736C344.576 729.692 341.984 728.324 339.86 727.46H341.336V724.976H327.44V727.46H333.056C330.392 730.736 325.712 733.364 321.14 734.912C322.076 735.74 323.048 736.964 323.552 737.9C324.164 737.648 324.848 737.36 325.496 737.036V749.06H329.24V747.944H339.212V748.916H343.172V736.82C343.928 737.144 344.684 737.432 345.404 737.72C345.872 736.604 346.88 735.344 347.78 734.516C343.82 733.472 339.86 731.996 336.26 729.008C336.44 728.792 336.584 728.612 336.728 728.396L334.64 727.46Z" fill="black"/>
<path d="M251.392 701.36V699.536H255.04V698.656H251.392V697.456H254.464V696.592H251.392V695.536H250.352V696.592H248.784C248.912 696.32 249.024 696.048 249.12 695.776L248.192 695.568C247.872 696.512 247.36 697.456 246.736 698.128C246.96 698.24 247.376 698.432 247.584 698.576C247.84 698.272 248.112 697.872 248.352 697.456H250.352V698.656H246.544V699.536H250.352V701.36H251.392ZM247.136 695.664C247.984 695.344 248.944 694.992 249.904 694.608L249.76 693.888C248.624 694.272 247.568 694.64 246.768 694.864L247.136 695.664ZM247.152 692.624C247.84 692.976 248.672 693.568 249.104 693.936L249.84 693.344C249.392 692.976 248.592 692.48 247.856 692.112L247.152 692.624ZM251.44 692.288H250.352V695.072H251.44V692.288ZM251.568 694.448C252.512 694.752 253.712 695.328 254.368 695.696L254.944 694.992C254.272 694.64 253.072 694.112 252.128 693.824L251.568 694.448ZM252.592 693.808C253.216 693.488 254.032 693.072 254.688 692.56L253.776 692.032C253.28 692.432 252.432 692.992 251.824 693.328L252.592 693.808ZM253.568 690.048V691.184H246.608V690.048H253.568ZM246.608 692.032H254.688V689.216H245.584V694.064C245.584 695.952 245.456 698.416 244.256 700.176C244.496 700.288 244.944 700.592 245.136 700.752C246.416 698.896 246.608 696.096 246.608 694.064V692.032ZM244.032 691.152C243.6 690.512 242.72 689.504 242 688.72L241.104 689.264C241.824 690.048 242.704 691.136 243.12 691.792L244.032 691.152ZM243.92 696.208L243.712 696.24H242.24C242.992 695.168 243.984 693.456 244.528 692.544L243.744 692.224L243.568 692.304H240.784V693.296H242.928C242.384 694.272 241.616 695.568 241.312 695.92C241.088 696.208 240.832 696.304 240.608 696.368C240.736 696.608 240.976 697.152 241.04 697.44C241.168 697.328 241.584 697.216 241.952 697.216H243.312C242.848 699.68 241.824 701.456 240.432 702.448C240.672 702.608 241.056 703.008 241.216 703.264C242 702.672 242.672 701.84 243.216 700.768C244.48 702.656 246.512 702.992 249.824 702.992C251.584 702.992 253.584 702.944 255.088 702.864C255.152 702.528 255.296 701.984 255.488 701.712C253.84 701.856 251.52 701.936 249.824 701.936C246.752 701.936 244.688 701.664 243.648 699.792C244.032 698.832 244.336 697.712 244.496 696.432L243.92 696.208ZM261.856 697.984H265.04V696.928H261.856V695.216H260.72V696.928H257.6V697.984H260.72V700.672C259.328 700.912 258.032 701.152 257.056 701.312L257.312 702.416C259.408 702.016 262.432 701.44 265.264 700.896L265.184 699.856C264.08 700.064 262.944 700.272 261.856 700.48V697.984ZM257.184 690.72H259.712C259.2 691.856 258.56 692.848 258.32 693.168C258.048 693.552 257.808 693.824 257.552 693.872C257.696 694.176 257.888 694.736 257.952 694.992C258.336 694.816 258.912 694.752 263.888 694.272C264.128 694.64 264.32 694.992 264.448 695.264L265.36 694.672C264.896 693.76 263.84 692.32 262.944 691.248L262.096 691.76C262.48 692.24 262.896 692.784 263.28 693.344L259.2 693.696C259.84 692.848 260.496 691.776 261.04 690.72H265.36V689.664H257.184V690.72ZM267.36 690H266.24V699.616H267.36V690ZM269.376 688.88V701.376C269.376 701.648 269.312 701.712 269.04 701.728C268.768 701.744 267.888 701.744 266.96 701.712C267.136 702.032 267.344 702.576 267.392 702.88C268.544 702.88 269.392 702.848 269.888 702.656C270.368 702.48 270.544 702.112 270.544 701.36V688.88H269.376Z" fill="#757575"/>
</g>
<defs>
<clipPath id="clip0">
<rect width="560" height="740" fill="white"/>
</clipPath>
</defs>
</svg>
